<svg width="32" height="32" viewBox="0 0 32 32" fill="none" xmlns="http://www.w3.org/2000/svg">
<circle cx="16" cy="16" r="16" fill="#5E5AFF"/>
<path d="M22.5627 13.0176H18.2599L22.1291 8.12891C22.2091 8.02539 22.1369 7.875 22.006 7.875H14.5158C14.4611 7.875 14.4084 7.9043 14.381 7.95312L9.32048 16.6934C9.25993 16.7969 9.33415 16.9277 9.45524 16.9277H12.8615L11.1154 23.9121C11.0783 24.0645 11.2619 24.1719 11.3752 24.0625L22.6701 13.2852C22.7716 13.1895 22.7033 13.0176 22.5627 13.0176ZM13.3869 20.3066L14.5646 15.5996H11.4904L15.1935 9.20508H19.5802L15.5119 14.3477H19.633L13.3869 20.3066Z" fill="#FDFDFD"/>
</svg>
