<svg width="32" height="32" viewBox="0 0 32 32" fill="none" xmlns="http://www.w3.org/2000/svg">
<circle cx="16" cy="16" r="16" fill="#5E5AFF"/>
<path d="M21.3438 20.5H20.9219V14.5234C20.9219 12.0432 19.0885 9.99355 16.7031 9.65254V8.96875C16.7031 8.58027 16.3885 8.26562 16 8.26562C15.6115 8.26562 15.2969 8.58027 15.2969 8.96875V9.65254C12.9115 9.99355 11.0781 12.0432 11.0781 14.5234V20.5H10.6562C10.3451 20.5 10.0938 20.7514 10.0938 21.0625V21.625C10.0938 21.7023 10.157 21.7656 10.2344 21.7656H14.0312C14.0312 22.852 14.9137 23.7344 16 23.7344C17.0863 23.7344 17.9688 22.852 17.9688 21.7656H21.7656C21.843 21.7656 21.9062 21.7023 21.9062 21.625V21.0625C21.9062 20.7514 21.6549 20.5 21.3438 20.5ZM16 22.6094C15.5342 22.6094 15.1562 22.2314 15.1562 21.7656H16.8438C16.8438 22.2314 16.4658 22.6094 16 22.6094ZM12.3438 20.5V14.5234C12.3438 13.5461 12.7234 12.6285 13.4143 11.9377C14.1051 11.2469 15.0227 10.8672 16 10.8672C16.9773 10.8672 17.8949 11.2469 18.5857 11.9377C19.2766 12.6285 19.6562 13.5461 19.6562 14.5234V20.5H12.3438Z" fill="#FDFDFD"/>
</svg>
