<svg width="32" height="32" viewBox="0 0 32 32" fill="none" xmlns="http://www.w3.org/2000/svg">
  <circle cx="16" cy="16" r="16" fill="#5E5AFF" />
  <path
    d="M18.1094 22.6094H13.8906C13.8133 22.6094 13.75 22.6727 13.75 22.75V23.3125C13.75 23.6236 14.0014 23.875 14.3125 23.875H17.6875C17.9986 23.875 18.25 23.6236 18.25 23.3125V22.75C18.25 22.6727 18.1867 22.6094 18.1094 22.6094ZM16 8.125C12.8166 8.125 10.2344 10.7072 10.2344 13.8906C10.2344 16.0246 11.3945 17.8879 13.1172 18.8846V20.9219C13.1172 21.233 13.3686 21.4844 13.6797 21.4844H18.3203C18.6314 21.4844 18.8828 21.233 18.8828 20.9219V18.8846C20.6055 17.8879 21.7656 16.0246 21.7656 13.8906C21.7656 10.7072 19.1834 8.125 16 8.125ZM18.2482 17.7895L17.6172 18.1551V20.2188H14.3828V18.1551L13.7518 17.7895C12.3684 16.9896 11.5 15.5166 11.5 13.8906C11.5 11.4051 13.5145 9.39062 16 9.39062C18.4855 9.39062 20.5 11.4051 20.5 13.8906C20.5 15.5166 19.6316 16.9896 18.2482 17.7895Z"
    fill="#FDFDFD" />
</svg>