<svg width="32" height="32" viewBox="0 0 32 32" fill="none" xmlns="http://www.w3.org/2000/svg">
<circle cx="16" cy="16" r="16" fill="#5E5AFF"/>
<path d="M15.1562 18.6562C15.1562 18.88 15.2451 19.0946 15.4033 19.2529C15.5616 19.4111 15.7762 19.5 16 19.5C16.2237 19.5 16.4383 19.4111 16.5966 19.2529C16.7548 19.0946 16.8437 18.88 16.8437 18.6562C16.8437 18.4325 16.7548 18.2179 16.5966 18.0596C16.4383 17.9014 16.2237 17.8125 16 17.8125C15.7762 17.8125 15.5616 17.9014 15.4033 18.0596C15.2451 18.2179 15.1562 18.4325 15.1562 18.6562ZM15.4375 13.3125V16.5469C15.4375 16.6242 15.5007 16.6875 15.5781 16.6875H16.4218C16.4992 16.6875 16.5625 16.6242 16.5625 16.5469V13.3125C16.5625 13.2352 16.4992 13.1719 16.4218 13.1719H15.5781C15.5007 13.1719 15.4375 13.2352 15.4375 13.3125ZM23.7994 21.0469L16.4869 8.39062C16.3779 8.20254 16.1898 8.10938 16 8.10938C15.8101 8.10938 15.6203 8.20254 15.513 8.39062L8.20054 21.0469C7.98433 21.423 8.25504 21.8906 8.68746 21.8906H23.3125C23.7449 21.8906 24.0156 21.423 23.7994 21.0469ZM10.0269 20.5564L16 10.217L21.973 20.5564H10.0269Z" fill="#FDFDFD"/>
</svg>
