<svg width="1240" height="727" viewBox="0 0 1240 727" fill="none" xmlns="http://www.w3.org/2000/svg">
<mask id="path-1-inside-1_24_24" fill="white">
<path fill-rule="evenodd" clip-rule="evenodd" d="M464.256 6.26221C465.785 3.54476 469.698 3.54476 471.227 6.26221L528.21 107.507C529.711 110.173 527.784 113.469 524.725 113.469H410.758C407.699 113.469 405.772 110.173 407.273 107.507L464.256 6.26221ZM363.819 196.869C360.759 196.869 358.832 193.573 360.333 190.907L391.514 135.507C392.222 134.248 393.555 133.469 394.999 133.469H540.484C541.928 133.469 543.261 134.248 543.97 135.507L575.15 190.907C576.651 193.573 574.724 196.869 571.664 196.869H363.819ZM348.06 216.869C346.615 216.869 345.283 217.648 344.574 218.907L257.111 374.307C255.61 376.973 257.537 380.269 260.597 380.269L674.887 380.269C677.946 380.269 679.873 376.973 678.372 374.307L590.909 218.907C590.201 217.648 588.868 216.869 587.423 216.869H348.06ZM208.029 473.668C204.969 473.668 203.042 470.373 204.543 467.707L241.352 402.307C242.06 401.048 243.393 400.269 244.837 400.269L690.646 400.269C692.09 400.269 693.423 401.048 694.132 402.307L730.94 467.707C732.441 470.373 730.514 473.669 727.454 473.669L208.029 473.668ZM192.27 493.668C190.825 493.668 189.492 494.448 188.784 495.707L94.9888 662.357C93.488 665.023 95.4148 668.319 98.4746 668.319H837.009C840.068 668.319 841.995 665.023 840.494 662.357L746.699 495.707C745.991 494.448 744.658 493.669 743.213 493.669L192.27 493.668Z"/>
</mask>
<path fill-rule="evenodd" clip-rule="evenodd" d="M464.256 6.26221C465.785 3.54476 469.698 3.54476 471.227 6.26221L528.21 107.507C529.711 110.173 527.784 113.469 524.725 113.469H410.758C407.699 113.469 405.772 110.173 407.273 107.507L464.256 6.26221ZM363.819 196.869C360.759 196.869 358.832 193.573 360.333 190.907L391.514 135.507C392.222 134.248 393.555 133.469 394.999 133.469H540.484C541.928 133.469 543.261 134.248 543.97 135.507L575.15 190.907C576.651 193.573 574.724 196.869 571.664 196.869H363.819ZM348.06 216.869C346.615 216.869 345.283 217.648 344.574 218.907L257.111 374.307C255.61 376.973 257.537 380.269 260.597 380.269L674.887 380.269C677.946 380.269 679.873 376.973 678.372 374.307L590.909 218.907C590.201 217.648 588.868 216.869 587.423 216.869H348.06ZM208.029 473.668C204.969 473.668 203.042 470.373 204.543 467.707L241.352 402.307C242.06 401.048 243.393 400.269 244.837 400.269L690.646 400.269C692.09 400.269 693.423 401.048 694.132 402.307L730.94 467.707C732.441 470.373 730.514 473.669 727.454 473.669L208.029 473.668ZM192.27 493.668C190.825 493.668 189.492 494.448 188.784 495.707L94.9888 662.357C93.488 665.023 95.4148 668.319 98.4746 668.319H837.009C840.068 668.319 841.995 665.023 840.494 662.357L746.699 495.707C745.991 494.448 744.658 493.669 743.213 493.669L192.27 493.668Z" fill="url(#paint0_linear_24_24)"/>
<path d="M746.699 495.707L749.314 494.235L746.699 495.707ZM743.213 493.669L743.213 490.669L743.213 493.669ZM840.494 662.357L837.88 663.828L840.494 662.357ZM94.9888 662.357L92.3744 660.885L94.9888 662.357ZM188.784 495.707L191.398 497.178L188.784 495.707ZM192.27 493.668L192.27 490.668L192.27 493.668ZM730.94 467.707L733.555 466.235L730.94 467.707ZM727.454 473.669L727.454 470.669L727.454 473.669ZM690.646 400.269L690.646 403.269L690.646 400.269ZM694.132 402.307L691.517 403.778L694.132 402.307ZM204.543 467.707L207.157 469.178L204.543 467.707ZM208.029 473.668L208.029 476.668L208.029 473.668ZM241.352 402.307L238.737 400.835L241.352 402.307ZM244.837 400.269L244.837 403.269L244.837 400.269ZM590.909 218.907L593.524 217.435L590.909 218.907ZM674.887 380.269L674.887 383.269L674.887 380.269ZM257.111 374.307L259.725 375.778L257.111 374.307ZM260.597 380.269L260.597 383.269L260.597 380.269ZM575.15 190.907L572.536 192.378L575.15 190.907ZM543.97 135.507L546.584 134.035L543.97 135.507ZM360.333 190.907L362.947 192.378L360.333 190.907ZM391.514 135.507L388.899 134.035L391.514 135.507ZM471.227 6.26221L468.613 7.73364L471.227 6.26221ZM530.825 106.035L473.842 4.79078L468.613 7.73364L525.596 108.978L530.825 106.035ZM410.758 116.469H524.725V110.469H410.758V116.469ZM461.641 4.79078L404.658 106.035L409.887 108.978L466.87 7.73364L461.641 4.79078ZM388.899 134.035L357.719 189.435L362.947 192.378L394.128 136.978L388.899 134.035ZM540.484 130.469H394.999V136.469H540.484V130.469ZM577.764 189.435L546.584 134.035L541.355 136.978L572.536 192.378L577.764 189.435ZM363.819 199.869H571.664V193.869H363.819V199.869ZM259.725 375.778L347.188 220.378L341.96 217.435L254.496 372.835L259.725 375.778ZM674.887 377.269L260.597 377.269L260.597 383.269L674.887 383.269L674.887 377.269ZM588.295 220.378L675.758 375.778L680.987 372.836L593.524 217.435L588.295 220.378ZM348.06 219.869H587.423V213.869H348.06V219.869ZM238.737 400.835L201.929 466.235L207.157 469.178L243.966 403.778L238.737 400.835ZM690.646 397.269L244.837 397.269L244.837 403.269L690.646 403.269L690.646 397.269ZM733.555 466.235L696.746 400.836L691.517 403.778L728.326 469.178L733.555 466.235ZM208.029 476.668L727.454 476.669L727.454 470.669L208.029 470.668L208.029 476.668ZM186.169 494.235L92.3744 660.885L97.6031 663.828L191.398 497.178L186.169 494.235ZM98.4746 671.319H837.009V665.319H98.4746V671.319ZM843.109 660.885L749.314 494.235L744.085 497.178L837.88 663.828L843.109 660.885ZM743.213 490.669L192.27 490.668L192.27 496.668L743.213 496.669L743.213 490.669ZM749.314 494.235C748.074 492.032 745.742 490.669 743.213 490.669L743.213 496.669C743.575 496.669 743.908 496.863 744.085 497.178L749.314 494.235ZM837.009 671.319C842.363 671.319 845.735 665.552 843.109 660.885L837.88 663.828C838.255 664.495 837.773 665.319 837.009 665.319V671.319ZM92.3744 660.885C89.7481 665.552 93.12 671.319 98.4746 671.319V665.319C97.7096 665.319 97.2279 664.495 97.6031 663.828L92.3744 660.885ZM191.398 497.178C191.575 496.863 191.908 496.668 192.27 496.668L192.27 490.668C189.741 490.668 187.41 492.032 186.169 494.235L191.398 497.178ZM728.326 469.178C728.701 469.845 728.219 470.669 727.454 470.669L727.454 476.669C732.809 476.669 736.181 470.901 733.555 466.235L728.326 469.178ZM690.646 403.269C691.007 403.269 691.34 403.464 691.517 403.778L696.746 400.836C695.506 398.632 693.174 397.269 690.646 397.269L690.646 403.269ZM201.929 466.235C199.302 470.901 202.674 476.668 208.029 476.668L208.029 470.668C207.264 470.668 206.782 469.845 207.157 469.178L201.929 466.235ZM243.966 403.778C244.143 403.464 244.476 403.269 244.837 403.269L244.837 397.269C242.309 397.269 239.977 398.632 238.737 400.835L243.966 403.778ZM593.524 217.435C592.283 215.232 589.952 213.869 587.423 213.869V219.869C587.785 219.869 588.118 220.063 588.295 220.378L593.524 217.435ZM674.887 383.269C680.241 383.269 683.613 377.502 680.987 372.836L675.758 375.778C676.133 376.445 675.652 377.269 674.887 377.269L674.887 383.269ZM347.188 220.378C347.365 220.063 347.699 219.869 348.06 219.869V213.869C345.531 213.869 343.2 215.232 341.96 217.435L347.188 220.378ZM254.496 372.835C251.87 377.502 255.242 383.269 260.597 383.269L260.597 377.269C259.832 377.269 259.35 376.445 259.725 375.778L254.496 372.835ZM572.536 192.378C572.911 193.045 572.429 193.869 571.664 193.869V199.869C577.019 199.869 580.391 194.102 577.764 189.435L572.536 192.378ZM540.484 136.469C540.845 136.469 541.178 136.664 541.355 136.978L546.584 134.035C545.344 131.832 543.012 130.469 540.484 130.469V136.469ZM357.719 189.435C355.092 194.102 358.464 199.869 363.819 199.869V193.869C363.054 193.869 362.572 193.045 362.947 192.378L357.719 189.435ZM394.128 136.978C394.305 136.664 394.638 136.469 394.999 136.469V130.469C392.471 130.469 390.139 131.832 388.899 134.035L394.128 136.978ZM410.758 110.469C409.994 110.469 409.512 109.645 409.887 108.978L404.658 106.035C402.032 110.702 405.404 116.469 410.758 116.469V110.469ZM473.842 4.79078C471.165 0.0352321 464.318 0.0352351 461.641 4.79078L466.87 7.73364C467.252 7.05428 468.231 7.05428 468.613 7.73364L473.842 4.79078ZM525.596 108.978C525.971 109.645 525.49 110.469 524.725 110.469V116.469C530.079 116.469 533.451 110.702 530.825 106.035L525.596 108.978Z" fill="black" fill-opacity="0.05" mask="url(#path-1-inside-1_24_24)"/>
<path opacity="0.6" d="M346.76 722V709.38H342.58V708H352.62V709.38H348.44V722H346.76ZM357.235 722.24C356.288 722.24 355.448 722.027 354.715 721.6C353.981 721.16 353.401 720.553 352.975 719.78C352.561 719.007 352.355 718.093 352.355 717.04C352.355 716 352.561 715.093 352.975 714.32C353.388 713.533 353.961 712.927 354.695 712.5C355.441 712.06 356.301 711.84 357.275 711.84C358.235 711.84 359.061 712.06 359.755 712.5C360.461 712.927 361.001 713.493 361.375 714.2C361.748 714.907 361.935 715.667 361.935 716.48C361.935 716.627 361.928 716.773 361.915 716.92C361.915 717.067 361.915 717.233 361.915 717.42H354.015C354.055 718.18 354.228 718.813 354.535 719.32C354.855 719.813 355.248 720.187 355.715 720.44C356.195 720.693 356.701 720.82 357.235 720.82C357.928 720.82 358.508 720.66 358.975 720.34C359.441 720.02 359.781 719.587 359.995 719.04H361.655C361.388 719.96 360.875 720.727 360.115 721.34C359.368 721.94 358.408 722.24 357.235 722.24ZM357.235 713.26C356.435 713.26 355.721 713.507 355.095 714C354.481 714.48 354.128 715.187 354.035 716.12H360.275C360.235 715.227 359.928 714.527 359.355 714.02C358.781 713.513 358.075 713.26 357.235 713.26ZM364.161 722V712.08H365.681L365.821 713.98C366.128 713.327 366.595 712.807 367.221 712.42C367.848 712.033 368.621 711.84 369.541 711.84V713.6H369.081C368.495 713.6 367.955 713.707 367.461 713.92C366.968 714.12 366.575 714.467 366.281 714.96C365.988 715.453 365.841 716.133 365.841 717V722H364.161ZM371.427 722V712.08H372.947L373.067 713.52C373.387 712.987 373.814 712.573 374.347 712.28C374.88 711.987 375.48 711.84 376.147 711.84C376.934 711.84 377.607 712 378.167 712.32C378.74 712.64 379.18 713.127 379.487 713.78C379.834 713.18 380.307 712.707 380.907 712.36C381.52 712.013 382.18 711.84 382.887 711.84C384.074 711.84 385.02 712.2 385.727 712.92C386.434 713.627 386.787 714.72 386.787 716.2V722H385.127V716.38C385.127 715.353 384.92 714.58 384.507 714.06C384.094 713.54 383.5 713.28 382.727 713.28C381.927 713.28 381.26 713.593 380.727 714.22C380.207 714.833 379.947 715.713 379.947 716.86V722H378.267V716.38C378.267 715.353 378.06 714.58 377.647 714.06C377.234 713.54 376.64 713.28 375.867 713.28C375.08 713.28 374.42 713.593 373.887 714.22C373.367 714.833 373.107 715.713 373.107 716.86V722H371.427ZM393.118 722.24C391.931 722.24 390.944 721.94 390.158 721.34C389.371 720.74 388.911 719.927 388.778 718.9H390.498C390.604 719.42 390.878 719.873 391.318 720.26C391.771 720.633 392.378 720.82 393.138 720.82C393.844 720.82 394.364 720.673 394.698 720.38C395.031 720.073 395.198 719.713 395.198 719.3C395.198 718.7 394.978 718.3 394.538 718.1C394.111 717.9 393.504 717.72 392.718 717.56C392.184 717.453 391.651 717.3 391.118 717.1C390.584 716.9 390.138 716.62 389.778 716.26C389.418 715.887 389.238 715.4 389.238 714.8C389.238 713.933 389.558 713.227 390.198 712.68C390.851 712.12 391.731 711.84 392.838 711.84C393.891 711.84 394.751 712.107 395.418 712.64C396.098 713.16 396.491 713.907 396.598 714.88H394.938C394.871 714.373 394.651 713.98 394.278 713.7C393.918 713.407 393.431 713.26 392.818 713.26C392.218 713.26 391.751 713.387 391.418 713.64C391.098 713.893 390.938 714.227 390.938 714.64C390.938 715.04 391.144 715.353 391.558 715.58C391.984 715.807 392.558 716 393.278 716.16C393.891 716.293 394.471 716.46 395.018 716.66C395.578 716.847 396.031 717.133 396.378 717.52C396.738 717.893 396.918 718.44 396.918 719.16C396.931 720.053 396.591 720.793 395.898 721.38C395.218 721.953 394.291 722.24 393.118 722.24ZM408.85 722.24C407.89 722.24 407.044 722.067 406.31 721.72C405.59 721.36 405.024 720.867 404.61 720.24C404.21 719.6 404.01 718.847 404.01 717.98C404.01 717.033 404.284 716.193 404.83 715.46C405.39 714.713 406.197 714.127 407.25 713.7C406.797 713.207 406.47 712.74 406.27 712.3C406.07 711.847 405.97 711.36 405.97 710.84C405.97 709.947 406.284 709.213 406.91 708.64C407.55 708.053 408.424 707.76 409.53 707.76C410.25 707.76 410.877 707.9 411.41 708.18C411.944 708.447 412.357 708.82 412.65 709.3C412.944 709.78 413.077 710.327 413.05 710.94H411.39C411.404 710.34 411.217 709.887 410.83 709.58C410.457 709.273 410.024 709.12 409.53 709.12C408.93 709.12 408.464 709.28 408.13 709.6C407.797 709.92 407.63 710.327 407.63 710.82C407.63 711.247 407.744 711.66 407.97 712.06C408.21 712.46 408.564 712.907 409.03 713.4L413.45 717.86C413.837 717.3 414.257 716.627 414.71 715.84L415.33 714.76H417.11L416.23 716.32C415.644 717.373 415.084 718.253 414.55 718.96L417.57 722H415.45L413.59 720.12C412.884 720.88 412.15 721.427 411.39 721.76C410.63 722.08 409.784 722.24 408.85 722.24ZM405.69 717.92C405.69 718.747 405.984 719.433 406.57 719.98C407.157 720.527 407.924 720.8 408.87 720.8C409.577 720.8 410.217 720.667 410.79 720.4C411.377 720.12 411.95 719.667 412.51 719.04L408.27 714.74C407.39 715.087 406.737 715.527 406.31 716.06C405.897 716.593 405.69 717.213 405.69 717.92ZM430.792 722.24C429.419 722.24 428.232 721.94 427.232 721.34C426.245 720.727 425.479 719.88 424.932 718.8C424.385 717.707 424.112 716.44 424.112 715C424.112 713.573 424.385 712.32 424.932 711.24C425.479 710.147 426.245 709.293 427.232 708.68C428.232 708.067 429.419 707.76 430.792 707.76C432.392 707.76 433.692 708.147 434.692 708.92C435.705 709.68 436.352 710.747 436.632 712.12H434.772C434.559 711.253 434.119 710.56 433.452 710.04C432.799 709.507 431.912 709.24 430.792 709.24C429.792 709.24 428.919 709.473 428.172 709.94C427.425 710.393 426.845 711.053 426.432 711.92C426.032 712.773 425.832 713.8 425.832 715C425.832 716.2 426.032 717.233 426.432 718.1C426.845 718.953 427.425 719.613 428.172 720.08C428.919 720.533 429.792 720.76 430.792 720.76C431.912 720.76 432.799 720.507 433.452 720C434.119 719.48 434.559 718.793 434.772 717.94H436.632C436.352 719.287 435.705 720.34 434.692 721.1C433.692 721.86 432.392 722.24 430.792 722.24ZM443.466 722.24C442.533 722.24 441.693 722.027 440.946 721.6C440.2 721.173 439.606 720.573 439.166 719.8C438.74 719.013 438.526 718.093 438.526 717.04C438.526 715.987 438.746 715.073 439.186 714.3C439.626 713.513 440.22 712.907 440.966 712.48C441.726 712.053 442.573 711.84 443.506 711.84C444.44 711.84 445.28 712.053 446.026 712.48C446.773 712.907 447.36 713.513 447.786 714.3C448.226 715.073 448.446 715.987 448.446 717.04C448.446 718.093 448.226 719.013 447.786 719.8C447.346 720.573 446.746 721.173 445.986 721.6C445.24 722.027 444.4 722.24 443.466 722.24ZM443.466 720.8C444.04 720.8 444.573 720.66 445.066 720.38C445.56 720.1 445.96 719.68 446.266 719.12C446.573 718.56 446.726 717.867 446.726 717.04C446.726 716.213 446.573 715.52 446.266 714.96C445.973 714.4 445.58 713.98 445.086 713.7C444.593 713.42 444.066 713.28 443.506 713.28C442.933 713.28 442.4 713.42 441.906 713.7C441.413 713.98 441.013 714.4 440.706 714.96C440.4 715.52 440.246 716.213 440.246 717.04C440.246 717.867 440.4 718.56 440.706 719.12C441.013 719.68 441.406 720.1 441.886 720.38C442.38 720.66 442.906 720.8 443.466 720.8ZM450.782 722V712.08H452.302L452.402 713.86C452.722 713.233 453.182 712.74 453.782 712.38C454.382 712.02 455.062 711.84 455.822 711.84C456.996 711.84 457.929 712.2 458.622 712.92C459.329 713.627 459.682 714.72 459.682 716.2V722H458.002V716.38C458.002 714.313 457.149 713.28 455.442 713.28C454.589 713.28 453.876 713.593 453.302 714.22C452.742 714.833 452.462 715.713 452.462 716.86V722H450.782ZM466.728 722.24C465.741 722.24 464.874 722.013 464.128 721.56C463.394 721.107 462.821 720.487 462.408 719.7C462.008 718.913 461.808 718.02 461.808 717.02C461.808 716.02 462.014 715.133 462.428 714.36C462.841 713.573 463.414 712.96 464.148 712.52C464.881 712.067 465.748 711.84 466.748 711.84C467.561 711.84 468.281 712.007 468.908 712.34C469.534 712.673 470.021 713.14 470.368 713.74V707.6H472.048V722H470.528L470.368 720.36C470.048 720.84 469.588 721.273 468.988 721.66C468.388 722.047 467.634 722.24 466.728 722.24ZM466.908 720.78C467.574 720.78 468.161 720.627 468.668 720.32C469.188 720 469.588 719.56 469.868 719C470.161 718.44 470.308 717.787 470.308 717.04C470.308 716.293 470.161 715.64 469.868 715.08C469.588 714.52 469.188 714.087 468.668 713.78C468.161 713.46 467.574 713.3 466.908 713.3C466.254 713.3 465.668 713.46 465.148 713.78C464.641 714.087 464.241 714.52 463.948 715.08C463.668 715.64 463.528 716.293 463.528 717.04C463.528 717.787 463.668 718.44 463.948 719C464.241 719.56 464.641 720 465.148 720.32C465.668 720.627 466.254 720.78 466.908 720.78ZM475.806 709.88C475.473 709.88 475.193 709.773 474.966 709.56C474.753 709.333 474.646 709.053 474.646 708.72C474.646 708.4 474.753 708.133 474.966 707.92C475.193 707.707 475.473 707.6 475.806 707.6C476.126 707.6 476.4 707.707 476.626 707.92C476.853 708.133 476.966 708.4 476.966 708.72C476.966 709.053 476.853 709.333 476.626 709.56C476.4 709.773 476.126 709.88 475.806 709.88ZM474.966 722V712.08H476.646V722H474.966ZM483.491 722C482.585 722 481.871 721.78 481.351 721.34C480.831 720.9 480.571 720.107 480.571 718.96V713.5H478.851V712.08H480.571L480.791 709.7H482.251V712.08H485.171V713.5H482.251V718.96C482.251 719.587 482.378 720.013 482.631 720.24C482.885 720.453 483.331 720.56 483.971 720.56H485.011V722H483.491ZM488.326 709.88C487.992 709.88 487.712 709.773 487.486 709.56C487.272 709.333 487.166 709.053 487.166 708.72C487.166 708.4 487.272 708.133 487.486 707.92C487.712 707.707 487.992 707.6 488.326 707.6C488.646 707.6 488.919 707.707 489.146 707.92C489.372 708.133 489.486 708.4 489.486 708.72C489.486 709.053 489.372 709.333 489.146 709.56C488.919 709.773 488.646 709.88 488.326 709.88ZM487.486 722V712.08H489.166V722H487.486ZM496.611 722.24C495.678 722.24 494.838 722.027 494.091 721.6C493.344 721.173 492.751 720.573 492.311 719.8C491.884 719.013 491.671 718.093 491.671 717.04C491.671 715.987 491.891 715.073 492.331 714.3C492.771 713.513 493.364 712.907 494.111 712.48C494.871 712.053 495.718 711.84 496.651 711.84C497.584 711.84 498.424 712.053 499.171 712.48C499.918 712.907 500.504 713.513 500.931 714.3C501.371 715.073 501.591 715.987 501.591 717.04C501.591 718.093 501.371 719.013 500.931 719.8C500.491 720.573 499.891 721.173 499.131 721.6C498.384 722.027 497.544 722.24 496.611 722.24ZM496.611 720.8C497.184 720.8 497.718 720.66 498.211 720.38C498.704 720.1 499.104 719.68 499.411 719.12C499.718 718.56 499.871 717.867 499.871 717.04C499.871 716.213 499.718 715.52 499.411 714.96C499.118 714.4 498.724 713.98 498.231 713.7C497.738 713.42 497.211 713.28 496.651 713.28C496.078 713.28 495.544 713.42 495.051 713.7C494.558 713.98 494.158 714.4 493.851 714.96C493.544 715.52 493.391 716.213 493.391 717.04C493.391 717.867 493.544 718.56 493.851 719.12C494.158 719.68 494.551 720.1 495.031 720.38C495.524 720.66 496.051 720.8 496.611 720.8ZM503.927 722V712.08H505.447L505.547 713.86C505.867 713.233 506.327 712.74 506.927 712.38C507.527 712.02 508.207 711.84 508.967 711.84C510.14 711.84 511.074 712.2 511.767 712.92C512.474 713.627 512.827 714.72 512.827 716.2V722H511.147V716.38C511.147 714.313 510.294 713.28 508.587 713.28C507.734 713.28 507.02 713.593 506.447 714.22C505.887 714.833 505.607 715.713 505.607 716.86V722H503.927ZM519.172 722.24C517.986 722.24 516.999 721.94 516.212 721.34C515.426 720.74 514.966 719.927 514.832 718.9H516.552C516.659 719.42 516.932 719.873 517.372 720.26C517.826 720.633 518.432 720.82 519.192 720.82C519.899 720.82 520.419 720.673 520.752 720.38C521.086 720.073 521.252 719.713 521.252 719.3C521.252 718.7 521.032 718.3 520.592 718.1C520.166 717.9 519.559 717.72 518.772 717.56C518.239 717.453 517.706 717.3 517.172 717.1C516.639 716.9 516.192 716.62 515.832 716.26C515.472 715.887 515.292 715.4 515.292 714.8C515.292 713.933 515.612 713.227 516.252 712.68C516.906 712.12 517.786 711.84 518.892 711.84C519.946 711.84 520.806 712.107 521.472 712.64C522.152 713.16 522.546 713.907 522.652 714.88H520.992C520.926 714.373 520.706 713.98 520.332 713.7C519.972 713.407 519.486 713.26 518.872 713.26C518.272 713.26 517.806 713.387 517.472 713.64C517.152 713.893 516.992 714.227 516.992 714.64C516.992 715.04 517.199 715.353 517.612 715.58C518.039 715.807 518.612 716 519.332 716.16C519.946 716.293 520.526 716.46 521.072 716.66C521.632 716.847 522.086 717.133 522.432 717.52C522.792 717.893 522.972 718.44 522.972 719.16C522.986 720.053 522.646 720.793 521.952 721.38C521.272 721.953 520.346 722.24 519.172 722.24ZM529.885 722L535.045 708H536.825L541.965 722H540.185L538.905 718.4H532.945L531.645 722H529.885ZM533.445 717.04H538.405L535.925 710.12L533.445 717.04ZM543.946 726.4V712.08H545.466L545.626 713.72C545.946 713.24 546.4 712.807 546.986 712.42C547.586 712.033 548.346 711.84 549.266 711.84C550.253 711.84 551.113 712.067 551.846 712.52C552.58 712.973 553.146 713.593 553.546 714.38C553.96 715.167 554.166 716.06 554.166 717.06C554.166 718.06 553.96 718.953 553.546 719.74C553.146 720.513 552.573 721.127 551.826 721.58C551.093 722.02 550.233 722.24 549.246 722.24C548.433 722.24 547.706 722.073 547.066 721.74C546.44 721.407 545.96 720.94 545.626 720.34V726.4H543.946ZM549.066 720.78C549.733 720.78 550.32 720.627 550.826 720.32C551.333 720 551.733 719.56 552.026 719C552.32 718.44 552.466 717.787 552.466 717.04C552.466 716.293 552.32 715.64 552.026 715.08C551.733 714.52 551.333 714.087 550.826 713.78C550.32 713.46 549.733 713.3 549.066 713.3C548.4 713.3 547.813 713.46 547.306 713.78C546.8 714.087 546.4 714.52 546.106 715.08C545.813 715.64 545.666 716.293 545.666 717.04C545.666 717.787 545.813 718.44 546.106 719C546.4 719.56 546.8 720 547.306 720.32C547.813 720.627 548.4 720.78 549.066 720.78ZM556.505 726.4V712.08H558.025L558.185 713.72C558.505 713.24 558.958 712.807 559.545 712.42C560.145 712.033 560.905 711.84 561.825 711.84C562.812 711.84 563.672 712.067 564.405 712.52C565.138 712.973 565.705 713.593 566.105 714.38C566.518 715.167 566.725 716.06 566.725 717.06C566.725 718.06 566.518 718.953 566.105 719.74C565.705 720.513 565.132 721.127 564.385 721.58C563.652 722.02 562.792 722.24 561.805 722.24C560.992 722.24 560.265 722.073 559.625 721.74C558.998 721.407 558.518 720.94 558.185 720.34V726.4H556.505ZM561.625 720.78C562.292 720.78 562.878 720.627 563.385 720.32C563.892 720 564.292 719.56 564.585 719C564.878 718.44 565.025 717.787 565.025 717.04C565.025 716.293 564.878 715.64 564.585 715.08C564.292 714.52 563.892 714.087 563.385 713.78C562.878 713.46 562.292 713.3 561.625 713.3C560.958 713.3 560.372 713.46 559.865 713.78C559.358 714.087 558.958 714.52 558.665 715.08C558.372 715.64 558.225 716.293 558.225 717.04C558.225 717.787 558.372 718.44 558.665 719C558.958 719.56 559.358 720 559.865 720.32C560.372 720.627 560.958 720.78 561.625 720.78ZM569.064 722V707.6H570.744V722H569.064ZM574.577 726.4L577.037 721.04H576.457L572.517 712.08H574.337L577.617 719.8L581.097 712.08H582.837L576.337 726.4H574.577ZM587.39 714.8L587.63 711.74L585.15 713.48L584.45 712.26L587.23 711.04L584.47 709.84L585.13 708.66L587.65 710.4L587.37 707.34H588.73L588.43 710.4L590.93 708.66L591.57 709.82L588.81 711.06L591.59 712.28L590.93 713.46L588.43 711.74L588.71 714.8H587.39Z" fill="white"/>
<path d="M459.496 93V77.6H462.312V90.8H469.132V93H459.496ZM472.49 93V80.812L469.96 81.406V79.25L473.678 77.6H475.416V93H472.49Z" fill="white"/>
<path d="M456.496 175V159.6H459.312V172.8H466.132V175H456.496ZM468.239 175V172.954C469.178 172.177 470.087 171.407 470.967 170.644C471.862 169.881 472.654 169.126 473.343 168.378C474.047 167.63 474.605 166.904 475.015 166.2C475.441 165.481 475.653 164.785 475.653 164.11C475.653 163.479 475.477 162.922 475.125 162.438C474.788 161.954 474.223 161.712 473.431 161.712C472.625 161.712 472.016 161.976 471.605 162.504C471.195 163.032 470.989 163.67 470.989 164.418H468.261C468.291 163.289 468.54 162.35 469.009 161.602C469.479 160.839 470.102 160.275 470.879 159.908C471.657 159.527 472.529 159.336 473.497 159.336C475.067 159.336 476.284 159.769 477.149 160.634C478.029 161.485 478.469 162.592 478.469 163.956C478.469 164.807 478.271 165.635 477.875 166.442C477.494 167.249 476.988 168.026 476.357 168.774C475.727 169.522 475.045 170.226 474.311 170.886C473.578 171.531 472.867 172.133 472.177 172.69H478.843V175H468.239Z" fill="white"/>
<path d="M456.496 264V248.6H459.312V261.8H466.132V264H456.496ZM473.651 264.264C472.639 264.264 471.723 264.088 470.901 263.736C470.08 263.369 469.42 262.812 468.921 262.064C468.423 261.316 468.159 260.377 468.129 259.248H470.901C470.916 259.996 471.158 260.627 471.627 261.14C472.111 261.639 472.786 261.888 473.651 261.888C474.473 261.888 475.103 261.661 475.543 261.206C475.983 260.751 476.203 260.179 476.203 259.49C476.203 258.683 475.91 258.075 475.323 257.664C474.751 257.239 474.011 257.026 473.101 257.026H471.957V254.716H473.123C473.871 254.716 474.495 254.54 474.993 254.188C475.492 253.836 475.741 253.315 475.741 252.626C475.741 252.054 475.551 251.599 475.169 251.262C474.803 250.91 474.289 250.734 473.629 250.734C472.911 250.734 472.346 250.947 471.935 251.372C471.539 251.797 471.319 252.318 471.275 252.934H468.525C468.584 251.511 469.075 250.389 469.999 249.568C470.938 248.747 472.148 248.336 473.629 248.336C474.685 248.336 475.573 248.527 476.291 248.908C477.025 249.275 477.575 249.766 477.941 250.382C478.323 250.998 478.513 251.68 478.513 252.428C478.513 253.293 478.271 254.027 477.787 254.628C477.318 255.215 476.731 255.611 476.027 255.816C476.893 255.992 477.597 256.417 478.139 257.092C478.682 257.752 478.953 258.588 478.953 259.6C478.953 260.451 478.748 261.228 478.337 261.932C477.927 262.636 477.325 263.201 476.533 263.626C475.756 264.051 474.795 264.264 473.651 264.264Z" fill="white"/>
<path d="M456.496 354V338.6H459.312V351.8H466.132V354H456.496ZM475.288 354V351.14H467.698V348.896L474.914 338.6H478.104V348.698H480.128V351.14H478.104V354H475.288ZM470.712 348.698H475.464V341.702L470.712 348.698Z" fill="white"/>
<path d="M456.496 444V428.6H459.312V441.8H466.132V444H456.496ZM473.62 444.264C472.49 444.264 471.515 444.066 470.694 443.67C469.887 443.274 469.249 442.731 468.78 442.042C468.325 441.338 468.061 440.546 467.988 439.666H470.738C470.87 440.297 471.192 440.825 471.706 441.25C472.219 441.661 472.857 441.866 473.62 441.866C474.441 441.866 475.108 441.565 475.622 440.964C476.15 440.363 476.414 439.615 476.414 438.72C476.414 437.796 476.15 437.063 475.622 436.52C475.108 435.977 474.456 435.706 473.664 435.706C473.004 435.706 472.432 435.867 471.948 436.19C471.464 436.513 471.119 436.916 470.914 437.4H468.208L469.528 428.6H478.064V431.064H471.64L470.936 434.628C471.258 434.276 471.698 433.99 472.256 433.77C472.813 433.535 473.436 433.418 474.126 433.418C475.226 433.418 476.142 433.667 476.876 434.166C477.609 434.65 478.166 435.295 478.548 436.102C478.929 436.894 479.12 437.759 479.12 438.698C479.12 439.769 478.885 440.722 478.416 441.558C477.961 442.394 477.316 443.054 476.48 443.538C475.658 444.022 474.705 444.264 473.62 444.264Z" fill="white"/>
<path d="M456.496 541V525.6H459.312V538.8H466.132V541H456.496ZM473.798 541.264C472.639 541.264 471.664 541.051 470.872 540.626C470.08 540.201 469.442 539.629 468.958 538.91C468.474 538.191 468.122 537.392 467.902 536.512C467.696 535.632 467.594 534.73 467.594 533.806C467.594 532.09 467.836 530.601 468.32 529.34C468.804 528.064 469.5 527.081 470.41 526.392C471.319 525.688 472.419 525.336 473.71 525.336C474.766 525.336 475.66 525.549 476.394 525.974C477.142 526.385 477.721 526.927 478.132 527.602C478.542 528.277 478.784 529.003 478.858 529.78H476.24C476.108 529.105 475.822 528.585 475.382 528.218C474.942 527.851 474.377 527.668 473.688 527.668C472.705 527.668 471.913 528.123 471.312 529.032C470.71 529.927 470.388 531.298 470.344 533.146C470.696 532.545 471.224 532.046 471.928 531.65C472.632 531.254 473.416 531.056 474.282 531.056C475.132 531.056 475.932 531.261 476.68 531.672C477.428 532.083 478.029 532.662 478.484 533.41C478.953 534.158 479.188 535.038 479.188 536.05C479.188 536.974 478.96 537.832 478.506 538.624C478.066 539.416 477.435 540.054 476.614 540.538C475.807 541.022 474.868 541.264 473.798 541.264ZM473.644 538.844C474.465 538.844 475.14 538.595 475.668 538.096C476.21 537.583 476.482 536.937 476.482 536.16C476.482 535.339 476.21 534.679 475.668 534.18C475.125 533.681 474.436 533.432 473.6 533.432C473.057 533.432 472.566 533.557 472.126 533.806C471.7 534.041 471.363 534.363 471.114 534.774C470.864 535.17 470.74 535.617 470.74 536.116C470.74 536.908 471.011 537.561 471.554 538.074C472.111 538.587 472.808 538.844 473.644 538.844Z" fill="white"/>
<path d="M456.496 636V620.6H459.312V633.8H466.132V636H456.496ZM468.526 636L474.334 622.998H466.744V620.6H477.238V622.602L471.452 636H468.526Z" fill="white"/>
<line x1="290.762" y1="302.269" x2="643.762" y2="302.269" stroke="#0D0D17" stroke-width="20"/>
<line x1="132.762" y1="583.669" x2="804.762" y2="583.669" stroke="#0D0D17" stroke-width="20"/>
<path d="M787 35.0293H552.673L522 78.065" stroke="white"/>
<path d="M812.888 46L822.392 24.724H809.972V20.8H827.144V24.076L817.676 46H812.888ZM835.142 33.184C833.99 33.184 832.946 32.932 832.01 32.428C831.074 31.9 830.33 31.156 829.778 30.196C829.226 29.236 828.95 28.096 828.95 26.776C828.95 25.456 829.226 24.316 829.778 23.356C830.33 22.396 831.074 21.664 832.01 21.16C832.946 20.632 834.002 20.368 835.178 20.368C836.33 20.368 837.362 20.632 838.274 21.16C839.21 21.664 839.954 22.396 840.506 23.356C841.058 24.316 841.334 25.456 841.334 26.776C841.334 28.096 841.058 29.236 840.506 30.196C839.954 31.156 839.21 31.9 838.274 32.428C837.338 32.932 836.294 33.184 835.142 33.184ZM833.774 46L847.994 20.8H852.494L838.274 46H833.774ZM835.142 29.98C835.838 29.98 836.438 29.716 836.942 29.188C837.446 28.636 837.698 27.832 837.698 26.776C837.698 25.72 837.446 24.916 836.942 24.364C836.462 23.812 835.862 23.536 835.142 23.536C834.422 23.536 833.81 23.812 833.306 24.364C832.826 24.916 832.586 25.72 832.586 26.776C832.586 27.832 832.826 28.636 833.306 29.188C833.81 29.716 834.422 29.98 835.142 29.98ZM851.27 46.432C850.118 46.432 849.074 46.18 848.138 45.676C847.202 45.148 846.458 44.404 845.906 43.444C845.354 42.484 845.078 41.344 845.078 40.024C845.078 38.704 845.354 37.576 845.906 36.64C846.458 35.68 847.202 34.948 848.138 34.444C849.074 33.916 850.13 33.652 851.306 33.652C852.458 33.652 853.49 33.916 854.402 34.444C855.338 34.948 856.082 35.68 856.634 36.64C857.186 37.576 857.462 38.704 857.462 40.024C857.462 41.344 857.186 42.484 856.634 43.444C856.082 44.404 855.338 45.148 854.402 45.676C853.49 46.18 852.446 46.432 851.27 46.432ZM851.27 43.228C851.99 43.228 852.59 42.964 853.07 42.436C853.574 41.884 853.826 41.08 853.826 40.024C853.826 38.968 853.574 38.164 853.07 37.612C852.59 37.06 851.99 36.784 851.27 36.784C850.55 36.784 849.938 37.06 849.434 37.612C848.954 38.164 848.714 38.968 848.714 40.024C848.714 41.08 848.954 41.884 849.434 42.436C849.938 42.964 850.55 43.228 851.27 43.228Z" fill="white"/>
<g opacity="0.9">
<path d="M836 124.029H601.673L571 167.065" stroke="white"/>
<path d="M868.692 135.432C867.036 135.432 865.536 135.144 864.192 134.568C862.848 133.968 861.768 133.056 860.952 131.832C860.136 130.608 859.704 129.072 859.656 127.224H864.192C864.216 128.448 864.612 129.48 865.38 130.32C866.172 131.136 867.276 131.544 868.692 131.544C870.036 131.544 871.068 131.172 871.788 130.428C872.508 129.684 872.868 128.748 872.868 127.62C872.868 126.3 872.388 125.304 871.428 124.632C870.492 123.936 869.28 123.588 867.792 123.588H865.92V119.808H867.828C869.052 119.808 870.072 119.52 870.888 118.944C871.704 118.368 872.112 117.516 872.112 116.388C872.112 115.452 871.8 114.708 871.176 114.156C870.576 113.58 869.736 113.292 868.656 113.292C867.48 113.292 866.556 113.64 865.884 114.336C865.236 115.032 864.876 115.884 864.804 116.892H860.304C860.4 114.564 861.204 112.728 862.716 111.384C864.252 110.04 866.232 109.368 868.656 109.368C870.384 109.368 871.836 109.68 873.012 110.304C874.212 110.904 875.112 111.708 875.712 112.716C876.336 113.724 876.648 114.84 876.648 116.064C876.648 117.48 876.252 118.68 875.46 119.664C874.692 120.624 873.732 121.272 872.58 121.608C873.996 121.896 875.148 122.592 876.036 123.696C876.924 124.776 877.368 126.144 877.368 127.8C877.368 129.192 877.032 130.464 876.36 131.616C875.688 132.768 874.704 133.692 873.408 134.388C872.136 135.084 870.564 135.432 868.692 135.432Z" fill="white"/>
</g>
<g opacity="0.9">
<path d="M888 213.029H653.673L623 256.065" stroke="white"/>
<path d="M911.836 224V220.652C913.372 219.38 914.86 218.12 916.3 216.872C917.764 215.624 919.06 214.388 920.188 213.164C921.34 211.94 922.252 210.752 922.924 209.6C923.62 208.424 923.968 207.284 923.968 206.18C923.968 205.148 923.68 204.236 923.104 203.444C922.552 202.652 921.628 202.256 920.332 202.256C919.012 202.256 918.016 202.688 917.344 203.552C916.672 204.416 916.336 205.46 916.336 206.684H911.872C911.92 204.836 912.328 203.3 913.096 202.076C913.864 200.828 914.884 199.904 916.156 199.304C917.428 198.68 918.856 198.368 920.44 198.368C923.008 198.368 925 199.076 926.416 200.492C927.856 201.884 928.576 203.696 928.576 205.928C928.576 207.32 928.252 208.676 927.604 209.996C926.98 211.316 926.152 212.588 925.12 213.812C924.088 215.036 922.972 216.188 921.772 217.268C920.572 218.324 919.408 219.308 918.28 220.22H929.188V224H911.836ZM937.478 211.184C936.326 211.184 935.282 210.932 934.346 210.428C933.41 209.9 932.666 209.156 932.114 208.196C931.562 207.236 931.286 206.096 931.286 204.776C931.286 203.456 931.562 202.316 932.114 201.356C932.666 200.396 933.41 199.664 934.346 199.16C935.282 198.632 936.338 198.368 937.514 198.368C938.666 198.368 939.698 198.632 940.61 199.16C941.546 199.664 942.29 200.396 942.842 201.356C943.394 202.316 943.67 203.456 943.67 204.776C943.67 206.096 943.394 207.236 942.842 208.196C942.29 209.156 941.546 209.9 940.61 210.428C939.674 210.932 938.63 211.184 937.478 211.184ZM936.11 224L950.33 198.8H954.83L940.61 224H936.11ZM937.478 207.98C938.174 207.98 938.774 207.716 939.278 207.188C939.782 206.636 940.034 205.832 940.034 204.776C940.034 203.72 939.782 202.916 939.278 202.364C938.798 201.812 938.198 201.536 937.478 201.536C936.758 201.536 936.146 201.812 935.642 202.364C935.162 202.916 934.922 203.72 934.922 204.776C934.922 205.832 935.162 206.636 935.642 207.188C936.146 207.716 936.758 207.98 937.478 207.98ZM953.606 224.432C952.454 224.432 951.41 224.18 950.474 223.676C949.538 223.148 948.794 222.404 948.242 221.444C947.69 220.484 947.414 219.344 947.414 218.024C947.414 216.704 947.69 215.576 948.242 214.64C948.794 213.68 949.538 212.948 950.474 212.444C951.41 211.916 952.466 211.652 953.642 211.652C954.794 211.652 955.826 211.916 956.738 212.444C957.674 212.948 958.418 213.68 958.97 214.64C959.522 215.576 959.798 216.704 959.798 218.024C959.798 219.344 959.522 220.484 958.97 221.444C958.418 222.404 957.674 223.148 956.738 223.676C955.826 224.18 954.782 224.432 953.606 224.432ZM953.606 221.228C954.326 221.228 954.926 220.964 955.406 220.436C955.91 219.884 956.162 219.08 956.162 218.024C956.162 216.968 955.91 216.164 955.406 215.612C954.926 215.06 954.326 214.784 953.606 214.784C952.886 214.784 952.274 215.06 951.77 215.612C951.29 216.164 951.05 216.968 951.05 218.024C951.05 219.08 951.29 219.884 951.77 220.436C952.274 220.964 952.886 221.228 953.606 221.228Z" fill="white"/>
</g>
<g opacity="0.9">
<path d="M940 303.029H705.673L675 346.065" stroke="white"/>
<path d="M967.184 314V294.056L963.044 295.028V291.5L969.128 288.8H971.972V314H967.184ZM978.01 314.252C977.17 314.252 976.474 313.988 975.922 313.46C975.394 312.932 975.13 312.296 975.13 311.552C975.13 310.784 975.394 310.136 975.922 309.608C976.474 309.08 977.17 308.816 978.01 308.816C978.85 308.816 979.534 309.08 980.062 309.608C980.614 310.136 980.89 310.784 980.89 311.552C980.89 312.296 980.614 312.932 980.062 313.46C979.534 313.988 978.85 314.252 978.01 314.252ZM993.103 314.432C991.255 314.432 989.659 314.108 988.315 313.46C986.995 312.812 985.951 311.924 985.183 310.796C984.439 309.644 984.007 308.348 983.887 306.908H988.387C988.603 307.94 989.131 308.804 989.971 309.5C990.811 310.172 991.855 310.508 993.103 310.508C994.447 310.508 995.539 310.016 996.379 309.032C997.243 308.048 997.675 306.824 997.675 305.36C997.675 303.848 997.243 302.648 996.379 301.76C995.539 300.872 994.471 300.428 993.175 300.428C992.095 300.428 991.159 300.692 990.367 301.22C989.575 301.748 989.011 302.408 988.675 303.2H984.247L986.407 288.8H1000.37V292.832H989.863L988.711 298.664C989.239 298.088 989.959 297.62 990.871 297.26C991.783 296.876 992.803 296.684 993.931 296.684C995.731 296.684 997.231 297.092 998.431 297.908C999.631 298.7 1000.54 299.756 1001.17 301.076C1001.79 302.372 1002.1 303.788 1002.1 305.324C1002.1 307.076 1001.72 308.636 1000.95 310.004C1000.21 311.372 999.151 312.452 997.783 313.244C996.439 314.036 994.879 314.432 993.103 314.432ZM1010.85 301.184C1009.7 301.184 1008.66 300.932 1007.72 300.428C1006.79 299.9 1006.04 299.156 1005.49 298.196C1004.94 297.236 1004.66 296.096 1004.66 294.776C1004.66 293.456 1004.94 292.316 1005.49 291.356C1006.04 290.396 1006.79 289.664 1007.72 289.16C1008.66 288.632 1009.71 288.368 1010.89 288.368C1012.04 288.368 1013.07 288.632 1013.99 289.16C1014.92 289.664 1015.67 290.396 1016.22 291.356C1016.77 292.316 1017.05 293.456 1017.05 294.776C1017.05 296.096 1016.77 297.236 1016.22 298.196C1015.67 299.156 1014.92 299.9 1013.99 300.428C1013.05 300.932 1012.01 301.184 1010.85 301.184ZM1009.49 314L1023.71 288.8H1028.21L1013.99 314H1009.49ZM1010.85 297.98C1011.55 297.98 1012.15 297.716 1012.65 297.188C1013.16 296.636 1013.41 295.832 1013.41 294.776C1013.41 293.72 1013.16 292.916 1012.65 292.364C1012.17 291.812 1011.57 291.536 1010.85 291.536C1010.13 291.536 1009.52 291.812 1009.02 292.364C1008.54 292.916 1008.3 293.72 1008.3 294.776C1008.3 295.832 1008.54 296.636 1009.02 297.188C1009.52 297.716 1010.13 297.98 1010.85 297.98ZM1026.98 314.432C1025.83 314.432 1024.79 314.18 1023.85 313.676C1022.91 313.148 1022.17 312.404 1021.62 311.444C1021.07 310.484 1020.79 309.344 1020.79 308.024C1020.79 306.704 1021.07 305.576 1021.62 304.64C1022.17 303.68 1022.91 302.948 1023.85 302.444C1024.79 301.916 1025.84 301.652 1027.02 301.652C1028.17 301.652 1029.2 301.916 1030.11 302.444C1031.05 302.948 1031.79 303.68 1032.35 304.64C1032.9 305.576 1033.17 306.704 1033.17 308.024C1033.17 309.344 1032.9 310.484 1032.35 311.444C1031.79 312.404 1031.05 313.148 1030.11 313.676C1029.2 314.18 1028.16 314.432 1026.98 314.432ZM1026.98 311.228C1027.7 311.228 1028.3 310.964 1028.78 310.436C1029.29 309.884 1029.54 309.08 1029.54 308.024C1029.54 306.968 1029.29 306.164 1028.78 305.612C1028.3 305.06 1027.7 304.784 1026.98 304.784C1026.26 304.784 1025.65 305.06 1025.15 305.612C1024.67 306.164 1024.43 306.968 1024.43 308.024C1024.43 309.08 1024.67 309.884 1025.15 310.436C1025.65 310.964 1026.26 311.228 1026.98 311.228Z" fill="white"/>
</g>
<g opacity="0.4">
<path d="M991 393.029H756.673L726 436.065" stroke="white"/>
<path d="M1025.78 404.432C1023.45 404.432 1021.46 403.892 1019.8 402.812C1018.15 401.708 1016.86 400.184 1015.95 398.24C1015.06 396.272 1014.62 393.992 1014.62 391.4C1014.62 388.832 1015.06 386.564 1015.95 384.596C1016.86 382.628 1018.15 381.104 1019.8 380.024C1021.46 378.92 1023.45 378.368 1025.78 378.368C1028.11 378.368 1030.1 378.92 1031.76 380.024C1033.41 381.104 1034.68 382.628 1035.57 384.596C1036.48 386.564 1036.94 388.832 1036.94 391.4C1036.94 393.992 1036.48 396.272 1035.57 398.24C1034.68 400.184 1033.41 401.708 1031.76 402.812C1030.1 403.892 1028.11 404.432 1025.78 404.432ZM1025.78 400.292C1027.68 400.292 1029.22 399.5 1030.42 397.916C1031.62 396.332 1032.22 394.16 1032.22 391.4C1032.22 388.64 1031.62 386.468 1030.42 384.884C1029.22 383.3 1027.68 382.508 1025.78 382.508C1023.86 382.508 1022.3 383.3 1021.1 384.884C1019.92 386.468 1019.34 388.64 1019.34 391.4C1019.34 394.16 1019.92 396.332 1021.1 397.916C1022.3 399.5 1023.86 400.292 1025.78 400.292ZM1040.72 404.252C1039.88 404.252 1039.18 403.988 1038.63 403.46C1038.1 402.932 1037.84 402.296 1037.84 401.552C1037.84 400.784 1038.1 400.136 1038.63 399.608C1039.18 399.08 1039.88 398.816 1040.72 398.816C1041.56 398.816 1042.24 399.08 1042.77 399.608C1043.32 400.136 1043.6 400.784 1043.6 401.552C1043.6 402.296 1043.32 402.932 1042.77 403.46C1042.24 403.988 1041.56 404.252 1040.72 404.252ZM1047.12 404L1056.63 382.724H1044.21V378.8H1061.38V382.076L1051.91 404H1047.12ZM1072.35 404.432C1070.5 404.432 1068.91 404.108 1067.56 403.46C1066.24 402.812 1065.2 401.924 1064.43 400.796C1063.69 399.644 1063.26 398.348 1063.14 396.908H1067.64C1067.85 397.94 1068.38 398.804 1069.22 399.5C1070.06 400.172 1071.1 400.508 1072.35 400.508C1073.7 400.508 1074.79 400.016 1075.63 399.032C1076.49 398.048 1076.92 396.824 1076.92 395.36C1076.92 393.848 1076.49 392.648 1075.63 391.76C1074.79 390.872 1073.72 390.428 1072.42 390.428C1071.34 390.428 1070.41 390.692 1069.62 391.22C1068.82 391.748 1068.26 392.408 1067.92 393.2H1063.5L1065.66 378.8H1079.62V382.832H1069.11L1067.96 388.664C1068.49 388.088 1069.21 387.62 1070.12 387.26C1071.03 386.876 1072.05 386.684 1073.18 386.684C1074.98 386.684 1076.48 387.092 1077.68 387.908C1078.88 388.7 1079.79 389.756 1080.42 391.076C1081.04 392.372 1081.35 393.788 1081.35 395.324C1081.35 397.076 1080.97 398.636 1080.2 400.004C1079.46 401.372 1078.4 402.452 1077.03 403.244C1075.69 404.036 1074.13 404.432 1072.35 404.432ZM1090.1 391.184C1088.95 391.184 1087.91 390.932 1086.97 390.428C1086.04 389.9 1085.29 389.156 1084.74 388.196C1084.19 387.236 1083.91 386.096 1083.91 384.776C1083.91 383.456 1084.19 382.316 1084.74 381.356C1085.29 380.396 1086.04 379.664 1086.97 379.16C1087.91 378.632 1088.96 378.368 1090.14 378.368C1091.29 378.368 1092.32 378.632 1093.24 379.16C1094.17 379.664 1094.92 380.396 1095.47 381.356C1096.02 382.316 1096.3 383.456 1096.3 384.776C1096.3 386.096 1096.02 387.236 1095.47 388.196C1094.92 389.156 1094.17 389.9 1093.24 390.428C1092.3 390.932 1091.26 391.184 1090.1 391.184ZM1088.74 404L1102.96 378.8H1107.46L1093.24 404H1088.74ZM1090.1 387.98C1090.8 387.98 1091.4 387.716 1091.9 387.188C1092.41 386.636 1092.66 385.832 1092.66 384.776C1092.66 383.72 1092.41 382.916 1091.9 382.364C1091.42 381.812 1090.82 381.536 1090.1 381.536C1089.38 381.536 1088.77 381.812 1088.27 382.364C1087.79 382.916 1087.55 383.72 1087.55 384.776C1087.55 385.832 1087.79 386.636 1088.27 387.188C1088.77 387.716 1089.38 387.98 1090.1 387.98ZM1106.23 404.432C1105.08 404.432 1104.04 404.18 1103.1 403.676C1102.16 403.148 1101.42 402.404 1100.87 401.444C1100.32 400.484 1100.04 399.344 1100.04 398.024C1100.04 396.704 1100.32 395.576 1100.87 394.64C1101.42 393.68 1102.16 392.948 1103.1 392.444C1104.04 391.916 1105.09 391.652 1106.27 391.652C1107.42 391.652 1108.45 391.916 1109.36 392.444C1110.3 392.948 1111.04 393.68 1111.6 394.64C1112.15 395.576 1112.42 396.704 1112.42 398.024C1112.42 399.344 1112.15 400.484 1111.6 401.444C1111.04 402.404 1110.3 403.148 1109.36 403.676C1108.45 404.18 1107.41 404.432 1106.23 404.432ZM1106.23 401.228C1106.95 401.228 1107.55 400.964 1108.03 400.436C1108.54 399.884 1108.79 399.08 1108.79 398.024C1108.79 396.968 1108.54 396.164 1108.03 395.612C1107.55 395.06 1106.95 394.784 1106.23 394.784C1105.51 394.784 1104.9 395.06 1104.4 395.612C1103.92 396.164 1103.68 396.968 1103.68 398.024C1103.68 399.08 1103.92 399.884 1104.4 400.436C1104.9 400.964 1105.51 401.228 1106.23 401.228Z" fill="white"/>
</g>
<g opacity="0.4">
<path d="M1045 490.029H810.673L780 533.065" stroke="white"/>
<path d="M1079.78 501.432C1077.45 501.432 1075.46 500.892 1073.8 499.812C1072.15 498.708 1070.86 497.184 1069.95 495.24C1069.06 493.272 1068.62 490.992 1068.62 488.4C1068.62 485.832 1069.06 483.564 1069.95 481.596C1070.86 479.628 1072.15 478.104 1073.8 477.024C1075.46 475.92 1077.45 475.368 1079.78 475.368C1082.11 475.368 1084.1 475.92 1085.76 477.024C1087.41 478.104 1088.68 479.628 1089.57 481.596C1090.48 483.564 1090.94 485.832 1090.94 488.4C1090.94 490.992 1090.48 493.272 1089.57 495.24C1088.68 497.184 1087.41 498.708 1085.76 499.812C1084.1 500.892 1082.11 501.432 1079.78 501.432ZM1079.78 497.292C1081.68 497.292 1083.22 496.5 1084.42 494.916C1085.62 493.332 1086.22 491.16 1086.22 488.4C1086.22 485.64 1085.62 483.468 1084.42 481.884C1083.22 480.3 1081.68 479.508 1079.78 479.508C1077.86 479.508 1076.3 480.3 1075.1 481.884C1073.92 483.468 1073.34 485.64 1073.34 488.4C1073.34 491.16 1073.92 493.332 1075.1 494.916C1076.3 496.5 1077.86 497.292 1079.78 497.292ZM1094.72 501.252C1093.88 501.252 1093.18 500.988 1092.63 500.46C1092.1 499.932 1091.84 499.296 1091.84 498.552C1091.84 497.784 1092.1 497.136 1092.63 496.608C1093.18 496.08 1093.88 495.816 1094.72 495.816C1095.56 495.816 1096.24 496.08 1096.77 496.608C1097.32 497.136 1097.6 497.784 1097.6 498.552C1097.6 499.296 1097.32 499.932 1096.77 500.46C1096.24 500.988 1095.56 501.252 1094.72 501.252ZM1109.81 501.432C1107.96 501.432 1106.37 501.108 1105.02 500.46C1103.7 499.812 1102.66 498.924 1101.89 497.796C1101.15 496.644 1100.71 495.348 1100.59 493.908H1105.09C1105.31 494.94 1105.84 495.804 1106.68 496.5C1107.52 497.172 1108.56 497.508 1109.81 497.508C1111.15 497.508 1112.25 497.016 1113.09 496.032C1113.95 495.048 1114.38 493.824 1114.38 492.36C1114.38 490.848 1113.95 489.648 1113.09 488.76C1112.25 487.872 1111.18 487.428 1109.88 487.428C1108.8 487.428 1107.87 487.692 1107.07 488.22C1106.28 488.748 1105.72 489.408 1105.38 490.2H1100.95L1103.11 475.8H1117.08V479.832H1106.57L1105.42 485.664C1105.95 485.088 1106.67 484.62 1107.58 484.26C1108.49 483.876 1109.51 483.684 1110.64 483.684C1112.44 483.684 1113.94 484.092 1115.14 484.908C1116.34 485.7 1117.25 486.756 1117.87 488.076C1118.5 489.372 1118.81 490.788 1118.81 492.324C1118.81 494.076 1118.43 495.636 1117.66 497.004C1116.91 498.372 1115.86 499.452 1114.49 500.244C1113.15 501.036 1111.59 501.432 1109.81 501.432ZM1127.56 488.184C1126.41 488.184 1125.37 487.932 1124.43 487.428C1123.49 486.9 1122.75 486.156 1122.2 485.196C1121.65 484.236 1121.37 483.096 1121.37 481.776C1121.37 480.456 1121.65 479.316 1122.2 478.356C1122.75 477.396 1123.49 476.664 1124.43 476.16C1125.37 475.632 1126.42 475.368 1127.6 475.368C1128.75 475.368 1129.78 475.632 1130.69 476.16C1131.63 476.664 1132.37 477.396 1132.93 478.356C1133.48 479.316 1133.75 480.456 1133.75 481.776C1133.75 483.096 1133.48 484.236 1132.93 485.196C1132.37 486.156 1131.63 486.9 1130.69 487.428C1129.76 487.932 1128.71 488.184 1127.56 488.184ZM1126.19 501L1140.41 475.8H1144.91L1130.69 501H1126.19ZM1127.56 484.98C1128.26 484.98 1128.86 484.716 1129.36 484.188C1129.87 483.636 1130.12 482.832 1130.12 481.776C1130.12 480.72 1129.87 479.916 1129.36 479.364C1128.88 478.812 1128.28 478.536 1127.56 478.536C1126.84 478.536 1126.23 478.812 1125.73 479.364C1125.25 479.916 1125.01 480.72 1125.01 481.776C1125.01 482.832 1125.25 483.636 1125.73 484.188C1126.23 484.716 1126.84 484.98 1127.56 484.98ZM1143.69 501.432C1142.54 501.432 1141.49 501.18 1140.56 500.676C1139.62 500.148 1138.88 499.404 1138.33 498.444C1137.77 497.484 1137.5 496.344 1137.5 495.024C1137.5 493.704 1137.77 492.576 1138.33 491.64C1138.88 490.68 1139.62 489.948 1140.56 489.444C1141.49 488.916 1142.55 488.652 1143.73 488.652C1144.88 488.652 1145.91 488.916 1146.82 489.444C1147.76 489.948 1148.5 490.68 1149.05 491.64C1149.61 492.576 1149.88 493.704 1149.88 495.024C1149.88 496.344 1149.61 497.484 1149.05 498.444C1148.5 499.404 1147.76 500.148 1146.82 500.676C1145.91 501.18 1144.87 501.432 1143.69 501.432ZM1143.69 498.228C1144.41 498.228 1145.01 497.964 1145.49 497.436C1145.99 496.884 1146.25 496.08 1146.25 495.024C1146.25 493.968 1145.99 493.164 1145.49 492.612C1145.01 492.06 1144.41 491.784 1143.69 491.784C1142.97 491.784 1142.36 492.06 1141.85 492.612C1141.37 493.164 1141.13 493.968 1141.13 495.024C1141.13 496.08 1141.37 496.884 1141.85 497.436C1142.36 497.964 1142.97 498.228 1143.69 498.228Z" fill="white"/>
</g>
<g opacity="0.4">
<path d="M1099 585.029H864.673L834 628.065" stroke="white"/>
<path d="M1133.78 596.432C1131.45 596.432 1129.46 595.892 1127.8 594.812C1126.15 593.708 1124.86 592.184 1123.95 590.24C1123.06 588.272 1122.62 585.992 1122.62 583.4C1122.62 580.832 1123.06 578.564 1123.95 576.596C1124.86 574.628 1126.15 573.104 1127.8 572.024C1129.46 570.92 1131.45 570.368 1133.78 570.368C1136.11 570.368 1138.1 570.92 1139.76 572.024C1141.41 573.104 1142.68 574.628 1143.57 576.596C1144.48 578.564 1144.94 580.832 1144.94 583.4C1144.94 585.992 1144.48 588.272 1143.57 590.24C1142.68 592.184 1141.41 593.708 1139.76 594.812C1138.1 595.892 1136.11 596.432 1133.78 596.432ZM1133.78 592.292C1135.68 592.292 1137.22 591.5 1138.42 589.916C1139.62 588.332 1140.22 586.16 1140.22 583.4C1140.22 580.64 1139.62 578.468 1138.42 576.884C1137.22 575.3 1135.68 574.508 1133.78 574.508C1131.86 574.508 1130.3 575.3 1129.1 576.884C1127.92 578.468 1127.34 580.64 1127.34 583.4C1127.34 586.16 1127.92 588.332 1129.1 589.916C1130.3 591.5 1131.86 592.292 1133.78 592.292ZM1148.72 596.252C1147.88 596.252 1147.18 595.988 1146.63 595.46C1146.1 594.932 1145.84 594.296 1145.84 593.552C1145.84 592.784 1146.1 592.136 1146.63 591.608C1147.18 591.08 1147.88 590.816 1148.72 590.816C1149.56 590.816 1150.24 591.08 1150.77 591.608C1151.32 592.136 1151.6 592.784 1151.6 593.552C1151.6 594.296 1151.32 594.932 1150.77 595.46C1150.24 595.988 1149.56 596.252 1148.72 596.252ZM1154.16 596V592.652C1155.7 591.38 1157.19 590.12 1158.63 588.872C1160.09 587.624 1161.39 586.388 1162.51 585.164C1163.67 583.94 1164.58 582.752 1165.25 581.6C1165.95 580.424 1166.29 579.284 1166.29 578.18C1166.29 577.148 1166.01 576.236 1165.43 575.444C1164.88 574.652 1163.95 574.256 1162.66 574.256C1161.34 574.256 1160.34 574.688 1159.67 575.552C1159 576.416 1158.66 577.46 1158.66 578.684H1154.2C1154.25 576.836 1154.65 575.3 1155.42 574.076C1156.19 572.828 1157.21 571.904 1158.48 571.304C1159.75 570.68 1161.18 570.368 1162.77 570.368C1165.33 570.368 1167.33 571.076 1168.74 572.492C1170.18 573.884 1170.9 575.696 1170.9 577.928C1170.9 579.32 1170.58 580.676 1169.93 581.996C1169.31 583.316 1168.48 584.588 1167.45 585.812C1166.41 587.036 1165.3 588.188 1164.1 589.268C1162.9 590.324 1161.73 591.308 1160.61 592.22H1171.51V596H1154.16ZM1183.66 596.432C1181.81 596.432 1180.21 596.108 1178.87 595.46C1177.55 594.812 1176.5 593.924 1175.74 592.796C1174.99 591.644 1174.56 590.348 1174.44 588.908H1178.94C1179.16 589.94 1179.68 590.804 1180.52 591.5C1181.36 592.172 1182.41 592.508 1183.66 592.508C1185 592.508 1186.09 592.016 1186.93 591.032C1187.8 590.048 1188.23 588.824 1188.23 587.36C1188.23 585.848 1187.8 584.648 1186.93 583.76C1186.09 582.872 1185.02 582.428 1183.73 582.428C1182.65 582.428 1181.71 582.692 1180.92 583.22C1180.13 583.748 1179.56 584.408 1179.23 585.2H1174.8L1176.96 570.8H1190.93V574.832H1180.42L1179.26 580.664C1179.79 580.088 1180.51 579.62 1181.42 579.26C1182.34 578.876 1183.36 578.684 1184.48 578.684C1186.28 578.684 1187.78 579.092 1188.98 579.908C1190.18 580.7 1191.1 581.756 1191.72 583.076C1192.34 584.372 1192.66 585.788 1192.66 587.324C1192.66 589.076 1192.27 590.636 1191.5 592.004C1190.76 593.372 1189.7 594.452 1188.34 595.244C1186.99 596.036 1185.43 596.432 1183.66 596.432ZM1201.41 583.184C1200.26 583.184 1199.21 582.932 1198.28 582.428C1197.34 581.9 1196.6 581.156 1196.04 580.196C1195.49 579.236 1195.22 578.096 1195.22 576.776C1195.22 575.456 1195.49 574.316 1196.04 573.356C1196.6 572.396 1197.34 571.664 1198.28 571.16C1199.21 570.632 1200.27 570.368 1201.44 570.368C1202.6 570.368 1203.63 570.632 1204.54 571.16C1205.48 571.664 1206.22 572.396 1206.77 573.356C1207.32 574.316 1207.6 575.456 1207.6 576.776C1207.6 578.096 1207.32 579.236 1206.77 580.196C1206.22 581.156 1205.48 581.9 1204.54 582.428C1203.6 582.932 1202.56 583.184 1201.41 583.184ZM1200.04 596L1214.26 570.8H1218.76L1204.54 596H1200.04ZM1201.41 579.98C1202.1 579.98 1202.7 579.716 1203.21 579.188C1203.71 578.636 1203.96 577.832 1203.96 576.776C1203.96 575.72 1203.71 574.916 1203.21 574.364C1202.73 573.812 1202.13 573.536 1201.41 573.536C1200.69 573.536 1200.08 573.812 1199.57 574.364C1199.09 574.916 1198.85 575.72 1198.85 576.776C1198.85 577.832 1199.09 578.636 1199.57 579.188C1200.08 579.716 1200.69 579.98 1201.41 579.98ZM1217.54 596.432C1216.38 596.432 1215.34 596.18 1214.4 595.676C1213.47 595.148 1212.72 594.404 1212.17 593.444C1211.62 592.484 1211.34 591.344 1211.34 590.024C1211.34 588.704 1211.62 587.576 1212.17 586.64C1212.72 585.68 1213.47 584.948 1214.4 584.444C1215.34 583.916 1216.4 583.652 1217.57 583.652C1218.72 583.652 1219.76 583.916 1220.67 584.444C1221.6 584.948 1222.35 585.68 1222.9 586.64C1223.45 587.576 1223.73 588.704 1223.73 590.024C1223.73 591.344 1223.45 592.484 1222.9 593.444C1222.35 594.404 1221.6 595.148 1220.67 595.676C1219.76 596.18 1218.71 596.432 1217.54 596.432ZM1217.54 593.228C1218.26 593.228 1218.86 592.964 1219.34 592.436C1219.84 591.884 1220.09 591.08 1220.09 590.024C1220.09 588.968 1219.84 588.164 1219.34 587.612C1218.86 587.06 1218.26 586.784 1217.54 586.784C1216.82 586.784 1216.2 587.06 1215.7 587.612C1215.22 588.164 1214.98 588.968 1214.98 590.024C1214.98 591.08 1215.22 591.884 1215.7 592.436C1216.2 592.964 1216.82 593.228 1217.54 593.228Z" fill="white"/>
</g>
<defs>
<linearGradient id="paint0_linear_24_24" x1="461.051" y1="197.446" x2="406.513" y2="657.562" gradientUnits="userSpaceOnUse">
<stop stop-color="#743FE0"/>
<stop offset="1" stop-color="#5E5BFF"/>
</linearGradient>
</defs>
</svg>
