<svg width="619" height="585" viewBox="0 0 619 585" fill="none" xmlns="http://www.w3.org/2000/svg">
<path fill-rule="evenodd" clip-rule="evenodd" d="M722.108 438.862L689.001 430.848L662.414 463.509L695.52 471.523L722.108 438.862ZM730.274 479.936L731.011 480.115L731.385 478.571L730.274 479.936ZM621.141 414.421L654.248 422.435L627.661 455.097L594.554 447.083L621.141 414.421ZM586.388 406.008L553.281 397.994L526.694 430.656L559.801 438.67L586.388 406.008ZM485.422 381.568L518.528 389.582L491.941 422.243L458.835 414.229L485.422 381.568ZM450.669 373.155L417.562 365.141L390.975 397.803L424.082 405.817L450.669 373.155ZM349.702 348.714L382.809 356.729L356.222 389.39L323.115 381.376L349.702 348.714ZM314.949 340.302L281.844 332.288L255.256 364.95L288.362 372.963L314.949 340.302ZM213.984 315.861L247.09 323.875L220.503 356.537L187.397 348.523L213.984 315.861ZM179.231 307.449L146.124 299.435L119.537 332.096L152.643 340.11L179.231 307.449ZM78.264 283.008L111.371 291.022L84.7833 323.683L51.6768 315.669L78.264 283.008ZM43.5107 274.595L10.404 266.581L-16.1832 299.243L16.9234 307.257L43.5107 274.595ZM-57.4549 250.155L-24.3493 258.168L-50.9365 290.83L-84.0421 282.816L-57.4549 250.155ZM-92.2082 241.742L-120.06 235L-129 271.933L-118.795 274.403L-92.2082 241.742Z" fill="#4235A2"/>
<g filter="url(#filter0_b_0_1)">
<rect width="619" height="585" fill="black" fill-opacity="0.5"/>
</g>
<path fill-rule="evenodd" clip-rule="evenodd" d="M-61.9317 469.656L-30.7755 462.148L-23.0713 421.203L-54.2275 428.711L-61.9317 469.656ZM-86.933 436.593L-87.6269 436.76L-87.2549 438.304L-86.933 436.593ZM33.0853 446.758L1.93004 454.266L9.6342 413.321L40.7895 405.813L33.0853 446.758ZM65.7908 438.876L96.9461 431.368L104.65 390.423L73.495 397.931L65.7908 438.876ZM160.807 415.978L129.652 423.486L137.356 382.541L168.511 375.033L160.807 415.978ZM193.513 408.096L224.668 400.588L232.372 359.643L201.217 367.152L193.513 408.096ZM288.529 385.198L257.373 392.706L265.078 351.762L296.233 344.253L288.529 385.198ZM321.234 377.316L352.39 369.808L360.094 328.864L328.939 336.372L321.234 377.316ZM416.251 354.418L385.095 361.926L392.799 320.982L423.955 313.474L416.251 354.418ZM448.956 346.536L480.112 339.028L487.817 298.083L456.66 305.592L448.956 346.536ZM543.973 323.638L512.818 331.146L520.522 290.202L551.677 282.694L543.973 323.638ZM576.679 315.756L607.834 308.248L615.538 267.304L584.383 274.812L576.679 315.756ZM671.695 292.858L640.54 300.366L648.244 259.422L679.399 251.914L671.695 292.858ZM704.401 284.977L730.61 278.66L721.708 241.718L712.105 244.032L704.401 284.977Z" fill="#211B51"/>
<defs>
<filter id="filter0_b_0_1" x="-8" y="-8" width="635" height="601" filterUnits="userSpaceOnUse" color-interpolation-filters="sRGB">
<feFlood flood-opacity="0" result="BackgroundImageFix"/>
<feGaussianBlur in="BackgroundImageFix" stdDeviation="4"/>
<feComposite in2="SourceAlpha" operator="in" result="effect1_backgroundBlur_0_1"/>
<feBlend mode="normal" in="SourceGraphic" in2="effect1_backgroundBlur_0_1" result="shape"/>
</filter>
</defs>
</svg>
