<svg width="234" height="82" viewBox="0 0 234 82" fill="none" xmlns="http://www.w3.org/2000/svg">
<rect x="16" y="51.6641" width="13.8328" height="13.8328" fill="white"/>
<rect x="29.834" y="37.832" width="13.8328" height="13.8328" fill="white"/>
<path d="M29.834 37.8328L43.6668 24V37.8328H29.834Z" fill="white"/>
<path d="M43.6668 65.5L29.834 51.6672L43.6668 51.6672L43.6668 65.5Z" fill="white"/>
<rect x="43.666" y="51.6641" width="13.8328" height="13.8328" fill="white"/>
<path d="M57.4992 37.8242L71.332 51.657L57.4992 51.657L57.4992 37.8242Z" fill="white"/>
<path d="M71.332 51.6594L57.4992 65.4922L57.4993 51.6594L71.332 51.6594Z" fill="white"/>
<rect x="43.666" y="24" width="13.8328" height="13.8328" fill="white"/>
<path d="M203.644 26V20.03H201.604V19H206.974V20.03H204.924V26H203.644ZM208.922 26V19H210.442L212.672 23.44L214.872 19H216.392V26H215.112V21.17L213.162 25H212.152L210.202 21.17V26H208.922Z" fill="white"/>
<path d="M91.052 24.74C94.392 24.74 96.592 26.46 97.372 29.32H94.892C94.292 27.66 93.012 26.84 91.052 26.84C89.692 26.84 88.592 27.32 87.732 28.3C86.872 29.26 86.452 30.5 86.452 32C86.452 33.5 86.872 34.72 87.732 35.7C88.592 36.68 89.712 37.16 91.092 37.16C93.152 37.16 94.452 36.16 95.012 34.58H97.412C96.612 37.56 94.452 39.26 91.092 39.26C89.052 39.26 87.372 38.58 86.052 37.2C84.752 35.82 84.092 34.1 84.092 32C84.092 29.9 84.752 28.18 86.052 26.8C87.352 25.42 89.032 24.74 91.052 24.74ZM105.54 28.78V30.92C104.72 30.92 104.04 31.14 103.52 31.6C102.94 32.08 102.66 32.8 102.64 33.74V39H100.52V28.88H102.38L102.56 30.6C102.94 29.56 103.94 28.78 105.54 28.78ZM114.749 28.88H117.029L111.669 43.3H109.449L111.069 38.86L107.369 28.88H109.649L111.989 35.66L112.189 36.48L112.389 35.66L114.749 28.88ZM125.244 28.66C126.624 28.66 127.764 29.16 128.644 30.18C129.524 31.18 129.964 32.44 129.964 33.94C129.964 35.44 129.524 36.7 128.624 37.72C127.744 38.72 126.624 39.22 125.244 39.22C123.744 39.22 122.604 38.6 122.044 37.74V43.3H119.904V28.88H121.764L121.904 30.32C122.644 29.22 123.764 28.66 125.244 28.66ZM124.864 30.66C124.084 30.66 123.424 30.96 122.844 31.54C122.264 32.12 121.984 32.9 121.984 33.86V33.98C122.004 34.96 122.284 35.74 122.844 36.34C123.424 36.92 124.084 37.22 124.844 37.22C125.684 37.22 126.384 36.92 126.924 36.3C127.484 35.68 127.764 34.9 127.764 33.94C127.764 32 126.564 30.66 124.864 30.66ZM133.688 26.4H135.828L135.808 28.88H138.268V30.84H135.788L135.748 35.64C135.748 36.76 136.088 37.2 137.128 37.2C137.568 37.2 137.948 37.14 138.268 37.04V38.92C137.888 39.06 137.368 39.14 136.708 39.14C134.628 39.14 133.608 38.2 133.628 36.1L133.668 30.84H131.888V28.88H133.668L133.688 26.4ZM142.054 30.14C143.034 29.16 144.274 28.66 145.794 28.66C147.314 28.66 148.554 29.16 149.534 30.14C150.514 31.12 151.014 32.4 151.014 33.94C151.014 35.48 150.514 36.76 149.534 37.74C148.554 38.72 147.314 39.22 145.794 39.22C144.274 39.22 143.034 38.72 142.054 37.74C141.074 36.76 140.594 35.48 140.594 33.94C140.594 32.4 141.074 31.12 142.054 30.14ZM147.974 31.56C147.434 30.94 146.714 30.62 145.814 30.62C144.914 30.62 144.194 30.94 143.634 31.56C143.074 32.18 142.794 32.98 142.794 33.94C142.794 34.9 143.074 35.7 143.634 36.32C144.194 36.94 144.914 37.26 145.814 37.26C146.714 37.26 147.434 36.94 147.974 36.32C148.534 35.7 148.814 34.9 148.814 33.94C148.814 32.98 148.534 32.18 147.974 31.56ZM159.211 28.88H162.951V30.72H161.331C161.551 31.22 161.671 31.74 161.671 32.28C161.671 33.3 161.311 34.16 160.591 34.84C159.871 35.5 158.931 35.84 157.771 35.84C157.031 35.84 156.391 35.7 155.811 35.44C155.591 35.66 155.491 35.94 155.491 36.3C155.491 36.88 155.931 37.24 156.651 37.24H159.191C161.291 37.24 162.431 38.28 162.431 40.06C162.431 42.24 160.771 43.52 158.111 43.52C155.211 43.52 153.611 42.4 153.611 40.4C153.611 39.6 153.971 39 154.691 38.58C153.831 38.08 153.411 37.38 153.411 36.46C153.411 35.6 153.751 34.9 154.451 34.36C154.011 33.74 153.791 33.06 153.791 32.28C153.791 31.22 154.151 30.36 154.891 29.68C155.631 29 156.591 28.66 157.771 28.66C158.271 28.66 158.751 28.74 159.211 28.88ZM157.751 30.4C156.611 30.4 155.871 31.16 155.871 32.28C155.871 33.34 156.631 34.14 157.751 34.14C158.871 34.14 159.611 33.34 159.611 32.28C159.611 31.16 158.871 30.4 157.751 30.4ZM158.711 38.96H156.971C156.231 39.02 155.711 39.46 155.711 40.26C155.711 41.28 156.591 41.8 158.111 41.8C159.611 41.8 160.351 41.26 160.351 40.18C160.351 39.36 159.811 38.96 158.711 38.96ZM170.486 28.78V30.92C169.666 30.92 168.986 31.14 168.466 31.6C167.886 32.08 167.606 32.8 167.586 33.74V39H165.466V28.88H167.326L167.506 30.6C167.886 29.56 168.886 28.78 170.486 28.78ZM176.782 28.66C179.162 28.66 180.582 29.96 180.582 32.34V39H178.702L178.602 37.68C178.002 38.7 177.002 39.22 175.622 39.22C173.802 39.22 172.602 38.12 172.602 36.34C172.602 34.72 173.582 33.74 175.562 33.36L178.442 32.84V32.38C178.442 31.16 177.882 30.56 176.782 30.56C175.742 30.56 174.962 31.18 174.962 32.16H172.902C172.942 31.14 173.322 30.32 174.022 29.66C174.722 29 175.642 28.66 176.782 28.66ZM178.442 34.8V34.44L176.022 34.96C175.162 35.14 174.742 35.58 174.742 36.24C174.742 36.94 175.242 37.38 176.122 37.38C176.942 37.38 177.542 37.06 177.962 36.4C178.282 35.94 178.442 35.42 178.442 34.8ZM191.44 24.4H193.56V39H191.7L191.56 37.58C190.8 38.68 189.68 39.22 188.2 39.22C186.82 39.22 185.7 38.72 184.82 37.72C183.94 36.7 183.5 35.44 183.5 33.94C183.5 32.44 183.94 31.18 184.82 30.18C185.72 29.16 186.84 28.66 188.22 28.66C189.68 28.66 190.74 29.16 191.44 30.14V24.4ZM188.6 30.68C186.92 30.68 185.7 32.02 185.7 33.94C185.7 35.88 186.88 37.22 188.58 37.22C189.36 37.22 190.04 36.94 190.6 36.36C191.18 35.78 191.46 35 191.46 34.02V33.92C191.46 32.94 191.18 32.16 190.6 31.58C190.02 30.98 189.36 30.68 188.6 30.68Z" fill="white"/>
<path d="M85.332 55H97.332" stroke="white" stroke-width="0.5"/>
<path d="M102.146 59V51.3H103.07L107.173 57.471V51.3H108.097V59H107.173L103.07 52.829V59H102.146ZM113.73 59V51.3H118.493V52.059H114.654V54.743H118.163V55.491H114.654V58.241H118.493V59H113.73ZM125.743 59V52.059H123.444V51.3H128.966V52.059H126.667V59H125.743ZM135.678 59.011L133.566 51.3H134.556L136.217 57.911L138.109 51.3H139.132L140.969 57.911L142.652 51.3H143.642L141.486 59H140.43L138.593 52.642L136.712 59L135.678 59.011ZM151.948 59.132C151.192 59.132 150.529 58.967 149.957 58.637C149.392 58.2997 148.948 57.8303 148.626 57.229C148.31 56.6277 148.153 55.9347 148.153 55.15C148.153 54.3653 148.31 53.676 148.626 53.082C148.948 52.4807 149.392 52.0113 149.957 51.674C150.529 51.3367 151.192 51.168 151.948 51.168C152.71 51.168 153.374 51.3367 153.939 51.674C154.511 52.0113 154.954 52.4807 155.27 53.082C155.585 53.676 155.743 54.3653 155.743 55.15C155.743 55.9347 155.585 56.6277 155.27 57.229C154.954 57.8303 154.511 58.2997 153.939 58.637C153.374 58.967 152.71 59.132 151.948 59.132ZM151.948 58.318C152.512 58.318 153.007 58.1933 153.433 57.944C153.865 57.6873 154.199 57.3243 154.434 56.855C154.676 56.3783 154.797 55.81 154.797 55.15C154.797 54.49 154.676 53.9253 154.434 53.456C154.199 52.9867 153.865 52.6273 153.433 52.378C153.007 52.1213 152.512 51.993 151.948 51.993C151.383 51.993 150.884 52.1213 150.452 52.378C150.026 52.6273 149.693 52.9867 149.451 53.456C149.216 53.9253 149.099 54.49 149.099 55.15C149.099 55.81 149.216 56.3783 149.451 56.855C149.693 57.3243 150.026 57.6873 150.452 57.944C150.884 58.1933 151.383 58.318 151.948 58.318ZM161.076 59V51.3H163.562C164.163 51.3 164.654 51.399 165.036 51.597C165.417 51.795 165.699 52.0663 165.883 52.411C166.066 52.7557 166.158 53.137 166.158 53.555C166.158 54.039 166.026 54.4753 165.762 54.864C165.505 55.2527 165.102 55.5277 164.552 55.689L166.235 59H165.146L163.584 55.821H163.518H162V59H161.076ZM162 55.095H163.496C164.09 55.095 164.522 54.952 164.794 54.666C165.065 54.38 165.201 54.0133 165.201 53.566C165.201 53.1113 165.065 52.752 164.794 52.488C164.53 52.2167 164.093 52.081 163.485 52.081H162V55.095ZM171.596 59V51.3H172.52V54.787L175.732 51.3H176.898L174.038 54.369L176.942 59H175.82L173.378 55.084L172.52 55.997V59H171.596Z" fill="white"/>
<path d="M181.332 55H193.332" stroke="white" stroke-width="0.5"/>
</svg>
