<svg width="1040" height="541" viewBox="0 0 1040 541" fill="none" xmlns="http://www.w3.org/2000/svg">
    <rect y="0.240234" width="1040" height="540" rx="24" fill="#22222C"/>
    <mask id="path-2-outside-1_2385_1280" maskUnits="userSpaceOnUse" x="432.923" y="341.676" width="173" height="15" fill="black">
    <rect fill="white" x="432.923" y="341.676" width="173" height="15"/>
    <path d="M444.443 343.933C444.506 343.98 444.558 344.034 444.599 344.098C444.639 344.156 444.66 344.217 444.66 344.28C444.66 344.361 444.637 344.43 444.59 344.488L444.131 345.251C444.032 345.39 443.931 345.46 443.827 345.46C443.787 345.46 443.74 345.451 443.688 345.434C443.642 345.41 443.587 345.376 443.524 345.33C443.107 345.035 442.668 344.809 442.205 344.653C441.749 344.497 441.266 344.404 440.757 344.376C440.011 344.376 439.323 344.511 438.693 344.783C438.063 345.049 437.517 345.41 437.054 345.867C436.597 346.318 436.239 346.844 435.979 347.446C435.718 348.041 435.588 348.671 435.588 349.336C435.588 350.041 435.721 350.695 435.987 351.296C436.253 351.892 436.609 352.406 437.054 352.84C437.505 353.273 438.025 353.612 438.615 353.854C439.211 354.097 439.835 354.219 440.488 354.219C440.725 354.219 440.962 354.201 441.199 354.167C441.436 354.132 441.676 354.074 441.919 353.993C442.168 353.906 442.425 353.8 442.691 353.672C442.957 353.539 443.24 353.377 443.541 353.187C443.651 353.123 443.74 353.091 443.81 353.091C443.914 353.091 444.009 353.164 444.096 353.308L444.59 354.123C444.631 354.198 444.651 354.268 444.651 354.331C444.651 354.47 444.582 354.58 444.443 354.661C443.899 355.054 443.301 355.363 442.648 355.589C441.994 355.809 441.289 355.918 440.532 355.918C439.919 355.918 439.329 355.84 438.762 355.684C438.202 355.528 437.676 355.306 437.184 355.017C436.698 354.727 436.253 354.383 435.849 353.985C435.45 353.58 435.106 353.135 434.817 352.649C434.533 352.158 434.314 351.631 434.157 351.071C434.001 350.504 433.923 349.914 433.923 349.301C433.923 348.694 434.001 348.11 434.157 347.55C434.314 346.983 434.536 346.454 434.825 345.963C435.114 345.471 435.458 345.023 435.857 344.618C436.262 344.214 436.71 343.87 437.201 343.586C437.693 343.297 438.219 343.075 438.78 342.919C439.346 342.757 439.936 342.676 440.549 342.676C441.272 342.676 441.957 342.783 442.604 342.997C443.252 343.211 443.865 343.523 444.443 343.933Z"/>
    <path d="M452.507 343.266C452.507 342.988 452.634 342.849 452.888 342.849H457.892C458.47 342.849 459.008 342.959 459.505 343.179C460.002 343.393 460.436 343.688 460.806 344.063C461.176 344.433 461.465 344.87 461.673 345.373C461.887 345.87 461.994 346.402 461.994 346.969C461.994 347.373 461.936 347.764 461.821 348.139C461.711 348.509 461.555 348.853 461.352 349.171C461.15 349.489 460.907 349.776 460.624 350.03C460.341 350.279 460.026 350.487 459.679 350.654L461.968 355.346V355.459C461.968 355.638 461.861 355.728 461.647 355.728H460.598C460.419 355.728 460.28 355.621 460.182 355.407L458.1 351.036C458.054 351.042 458.002 351.045 457.944 351.045C457.892 351.045 457.814 351.047 457.71 351.053C457.612 351.053 457.479 351.053 457.311 351.053C457.143 351.053 456.921 351.053 456.643 351.053C456.372 351.053 456.036 351.053 455.637 351.053C455.238 351.053 454.756 351.053 454.189 351.053V355.346C454.189 355.6 454.056 355.728 453.79 355.728H452.888C452.634 355.728 452.507 355.6 452.507 355.346V343.266ZM460.329 346.951C460.329 346.633 460.265 346.327 460.138 346.032C460.017 345.737 459.846 345.477 459.627 345.251C459.413 345.026 459.155 344.847 458.855 344.714C458.56 344.575 458.239 344.506 457.892 344.506H454.189V349.397H457.927C458.268 349.397 458.586 349.33 458.881 349.197C459.176 349.064 459.43 348.885 459.644 348.66C459.858 348.434 460.026 348.174 460.147 347.879C460.268 347.584 460.329 347.275 460.329 346.951Z"/>
    <path d="M469.027 343.266C468.947 343.144 468.912 343.046 468.923 342.971C468.941 342.89 469.016 342.849 469.149 342.849H470.554C470.606 342.855 470.649 342.861 470.684 342.867C470.719 342.872 470.75 342.887 470.779 342.91C470.808 342.927 470.837 342.959 470.866 343.005C470.895 343.052 470.932 343.115 470.979 343.196L474.083 348.582H474.109L477.275 343.135C477.338 343.02 477.396 342.948 477.448 342.919C477.5 342.884 477.57 342.861 477.656 342.849H479.105C479.232 342.849 479.295 342.901 479.295 343.005C479.295 343.057 479.264 343.133 479.2 343.231C478.842 343.803 478.486 344.387 478.133 344.983C477.781 345.572 477.428 346.168 477.075 346.769C476.728 347.365 476.376 347.96 476.017 348.556C475.665 349.145 475.306 349.726 474.942 350.299V355.311C474.942 355.589 474.815 355.728 474.56 355.728H473.632C473.39 355.728 473.268 355.589 473.268 355.311V350.342L469.027 343.266Z"/>
    <path d="M486.745 343.266C486.745 342.988 486.878 342.849 487.144 342.849H491.454C492.026 342.849 492.555 342.956 493.041 343.17C493.532 343.384 493.957 343.676 494.316 344.046C494.674 344.41 494.954 344.838 495.157 345.33C495.359 345.815 495.46 346.33 495.46 346.873C495.46 347.405 495.359 347.911 495.157 348.391C494.96 348.871 494.683 349.296 494.324 349.666C493.972 350.03 493.552 350.322 493.067 350.542C492.587 350.756 492.064 350.862 491.497 350.862H488.418V355.346C488.418 355.6 488.291 355.728 488.037 355.728H487.126C486.872 355.728 486.745 355.6 486.745 355.346V343.266ZM493.787 346.856C493.787 346.549 493.726 346.255 493.604 345.971C493.483 345.688 493.315 345.439 493.101 345.225C492.893 345.006 492.648 344.832 492.364 344.705C492.081 344.572 491.777 344.506 491.454 344.506H488.418V349.206H491.454C491.766 349.206 492.064 349.142 492.347 349.015C492.63 348.888 492.879 348.718 493.093 348.504C493.307 348.284 493.474 348.032 493.596 347.749C493.723 347.466 493.787 347.168 493.787 346.856Z"/>
    <path d="M511.923 342.849C512.027 342.849 512.12 342.881 512.201 342.945C512.287 343.008 512.336 343.104 512.348 343.231V344.107C512.348 344.222 512.313 344.324 512.244 344.41C512.174 344.491 512.068 344.532 511.923 344.532H508.315V355.329C508.315 355.433 508.281 355.525 508.211 355.606C508.142 355.687 508.044 355.728 507.916 355.728H507.04C506.936 355.728 506.844 355.69 506.763 355.615C506.682 355.54 506.642 355.444 506.642 355.329V344.532H503.017C502.901 344.532 502.805 344.497 502.73 344.428C502.655 344.358 502.618 344.251 502.618 344.107V343.231C502.618 343.115 502.655 343.023 502.73 342.953C502.805 342.884 502.901 342.849 503.017 342.849H511.923Z"/>
    <path d="M520.503 349.275C520.503 349.732 520.561 350.172 520.677 350.594C520.798 351.01 520.966 351.403 521.18 351.773C521.394 352.137 521.651 352.47 521.952 352.77C522.252 353.071 522.585 353.328 522.949 353.542C523.319 353.756 523.712 353.924 524.128 354.045C524.55 354.161 524.99 354.219 525.447 354.219C525.898 354.219 526.334 354.161 526.756 354.045C527.178 353.924 527.571 353.756 527.936 353.542C528.3 353.328 528.632 353.071 528.933 352.77C529.233 352.47 529.491 352.137 529.705 351.773C529.919 351.403 530.083 351.01 530.199 350.594C530.32 350.172 530.381 349.732 530.381 349.275C530.381 348.593 530.251 347.954 529.991 347.359C529.731 346.758 529.378 346.234 528.933 345.789C528.488 345.344 527.964 344.991 527.363 344.731C526.768 344.471 526.129 344.341 525.447 344.341C524.99 344.341 524.55 344.402 524.128 344.523C523.712 344.639 523.319 344.803 522.949 345.017C522.585 345.231 522.252 345.489 521.952 345.789C521.651 346.09 521.394 346.422 521.18 346.786C520.966 347.151 520.798 347.544 520.677 347.966C520.561 348.388 520.503 348.824 520.503 349.275ZM525.464 342.676C526.071 342.676 526.655 342.754 527.216 342.91C527.782 343.066 528.308 343.289 528.794 343.578C529.286 343.867 529.734 344.214 530.138 344.618C530.543 345.017 530.887 345.465 531.17 345.963C531.459 346.454 531.682 346.983 531.838 347.55C532 348.116 532.081 348.706 532.081 349.319C532.081 349.926 532.003 350.513 531.847 351.079C531.691 351.64 531.468 352.166 531.179 352.658C530.89 353.143 530.543 353.588 530.138 353.993C529.739 354.392 529.294 354.736 528.803 355.025C528.311 355.308 527.782 355.528 527.216 355.684C526.649 355.84 526.059 355.918 525.447 355.918C524.834 355.918 524.244 355.84 523.677 355.684C523.117 355.528 522.59 355.306 522.099 355.017C521.613 354.727 521.168 354.383 520.763 353.985C520.365 353.58 520.021 353.135 519.731 352.649C519.448 352.158 519.229 351.631 519.072 351.071C518.916 350.504 518.838 349.914 518.838 349.301C518.838 348.694 518.916 348.11 519.072 347.55C519.229 346.983 519.451 346.454 519.74 345.963C520.029 345.471 520.373 345.023 520.772 344.618C521.177 344.214 521.625 343.87 522.116 343.586C522.608 343.297 523.134 343.075 523.695 342.919C524.261 342.757 524.851 342.676 525.464 342.676Z"/>
    <path d="M548.886 350.42C548.886 350.166 549.013 350.039 549.268 350.039H550.161C550.265 350.039 550.358 350.073 550.439 350.143C550.52 350.206 550.56 350.299 550.56 350.42V354.297C550.56 354.366 550.546 354.433 550.517 354.496C550.488 354.554 550.439 354.603 550.369 354.644L550.3 354.696C549.756 355.089 549.158 355.392 548.505 355.606C547.851 355.814 547.146 355.918 546.389 355.918C545.776 355.918 545.186 355.84 544.619 355.684C544.059 355.528 543.533 355.306 543.041 355.017C542.555 354.727 542.11 354.383 541.706 353.985C541.307 353.58 540.963 353.135 540.674 352.649C540.39 352.158 540.171 351.631 540.014 351.071C539.858 350.504 539.78 349.914 539.78 349.301C539.78 348.694 539.858 348.11 540.014 347.55C540.171 346.989 540.393 346.463 540.682 345.971C540.971 345.48 541.315 345.032 541.714 344.627C542.119 344.222 542.564 343.875 543.05 343.586C543.541 343.297 544.067 343.075 544.628 342.919C545.195 342.757 545.784 342.676 546.397 342.676C547.108 342.676 547.794 342.786 548.453 343.005C549.112 343.219 549.727 343.529 550.3 343.933C550.363 343.98 550.415 344.034 550.456 344.098C550.496 344.156 550.517 344.217 550.517 344.28C550.517 344.361 550.494 344.43 550.447 344.488L549.988 345.251C549.889 345.39 549.788 345.46 549.684 345.46C549.644 345.46 549.597 345.451 549.545 345.434C549.499 345.41 549.444 345.376 549.381 345.33C548.964 345.035 548.51 344.803 548.019 344.636C547.533 344.462 547.013 344.376 546.458 344.376C545.741 344.376 545.076 344.511 544.463 344.783C543.856 345.055 543.327 345.419 542.876 345.876C542.431 346.333 542.081 346.859 541.827 347.454C541.573 348.05 541.445 348.671 541.445 349.319C541.445 350.007 541.575 350.651 541.836 351.253C542.096 351.848 542.448 352.369 542.894 352.814C543.339 353.253 543.856 353.6 544.446 353.854C545.042 354.109 545.675 354.236 546.345 354.236C546.767 354.236 547.186 354.17 547.603 354.037C548.025 353.898 548.453 353.736 548.886 353.551V350.42Z"/>
    <path d="M558.735 343.266C558.735 342.988 558.862 342.849 559.116 342.849H564.12C564.698 342.849 565.236 342.959 565.733 343.179C566.23 343.393 566.664 343.688 567.034 344.063C567.404 344.433 567.693 344.87 567.901 345.373C568.115 345.87 568.222 346.402 568.222 346.969C568.222 347.373 568.164 347.764 568.049 348.139C567.939 348.509 567.783 348.853 567.58 349.171C567.378 349.489 567.135 349.776 566.852 350.03C566.569 350.279 566.254 350.487 565.907 350.654L568.196 355.346V355.459C568.196 355.638 568.089 355.728 567.875 355.728H566.826C566.647 355.728 566.508 355.621 566.41 355.407L564.328 351.036C564.282 351.042 564.23 351.045 564.172 351.045C564.12 351.045 564.042 351.047 563.938 351.053C563.84 351.053 563.707 351.053 563.539 351.053C563.371 351.053 563.149 351.053 562.871 351.053C562.6 351.053 562.264 351.053 561.865 351.053C561.466 351.053 560.984 351.053 560.417 351.053V355.346C560.417 355.6 560.284 355.728 560.018 355.728H559.116C558.862 355.728 558.735 355.6 558.735 355.346V343.266ZM566.557 346.951C566.557 346.633 566.493 346.327 566.366 346.032C566.245 345.737 566.074 345.477 565.855 345.251C565.641 345.026 565.383 344.847 565.083 344.714C564.788 344.575 564.467 344.506 564.12 344.506H560.417V349.397H564.155C564.496 349.397 564.814 349.33 565.109 349.197C565.404 349.064 565.658 348.885 565.872 348.66C566.086 348.434 566.254 348.174 566.375 347.879C566.496 347.584 566.557 347.275 566.557 346.951Z"/>
    <path d="M577.424 355.407C577.383 355.505 577.325 355.583 577.25 355.641C577.175 355.699 577.08 355.728 576.964 355.728H576.045C575.779 355.728 575.646 355.626 575.646 355.424C575.646 355.384 575.646 355.352 575.646 355.329C575.652 355.3 575.657 355.274 575.663 355.251C575.669 355.228 575.675 355.207 575.68 355.19L580.684 343.17C580.696 343.141 580.71 343.109 580.728 343.075C580.745 343.034 580.768 343 580.797 342.971C580.826 342.936 580.866 342.907 580.919 342.884C580.976 342.861 581.051 342.849 581.144 342.849H581.716C581.803 342.849 581.872 342.861 581.924 342.884C581.982 342.907 582.026 342.936 582.055 342.971C582.083 343 582.107 343.034 582.124 343.075C582.141 343.109 582.156 343.141 582.167 343.17L587.128 355.19C587.134 355.219 587.139 355.248 587.145 355.277C587.151 355.306 587.157 355.335 587.163 355.363C587.168 355.387 587.171 355.407 587.171 355.424C587.171 355.626 587.038 355.728 586.772 355.728H585.853C585.737 355.728 585.642 355.699 585.567 355.641C585.492 355.583 585.434 355.505 585.393 355.407L584.439 353.022H578.351C578.149 353.536 577.964 354.002 577.796 354.418C577.629 354.834 577.504 355.164 577.424 355.407ZM579.045 351.339H583.772L581.43 345.408L579.045 351.339Z"/>
    <path d="M594.852 343.266C594.852 342.988 594.985 342.849 595.251 342.849H599.301C599.92 342.849 600.51 342.924 601.07 343.075C601.631 343.225 602.152 343.439 602.631 343.716C603.111 343.994 603.545 344.329 603.932 344.722C604.32 345.116 604.649 345.552 604.921 346.032C605.198 346.506 605.412 347.021 605.563 347.576C605.713 348.125 605.788 348.7 605.788 349.301C605.788 349.897 605.71 350.469 605.554 351.019C605.404 351.562 605.187 352.074 604.904 352.554C604.626 353.028 604.291 353.461 603.898 353.854C603.504 354.242 603.068 354.574 602.588 354.852C602.108 355.129 601.591 355.346 601.036 355.502C600.481 355.652 599.903 355.728 599.301 355.728H595.251C595.147 355.728 595.055 355.705 594.974 355.658C594.893 355.606 594.852 355.508 594.852 355.363V343.266ZM599.258 354.071C599.963 354.071 600.614 353.941 601.209 353.681C601.805 353.421 602.316 353.071 602.744 352.632C603.178 352.186 603.516 351.669 603.759 351.079C604.002 350.49 604.123 349.865 604.123 349.206C604.123 348.501 603.996 347.859 603.742 347.281C603.487 346.703 603.14 346.208 602.701 345.798C602.267 345.387 601.758 345.069 601.174 344.844C600.591 344.618 599.966 344.506 599.301 344.506H596.517V354.071H599.258Z"/>
    </mask>
    <path d="M444.443 343.933C444.506 343.98 444.558 344.034 444.599 344.098C444.639 344.156 444.66 344.217 444.66 344.28C444.66 344.361 444.637 344.43 444.59 344.488L444.131 345.251C444.032 345.39 443.931 345.46 443.827 345.46C443.787 345.46 443.74 345.451 443.688 345.434C443.642 345.41 443.587 345.376 443.524 345.33C443.107 345.035 442.668 344.809 442.205 344.653C441.749 344.497 441.266 344.404 440.757 344.376C440.011 344.376 439.323 344.511 438.693 344.783C438.063 345.049 437.517 345.41 437.054 345.867C436.597 346.318 436.239 346.844 435.979 347.446C435.718 348.041 435.588 348.671 435.588 349.336C435.588 350.041 435.721 350.695 435.987 351.296C436.253 351.892 436.609 352.406 437.054 352.84C437.505 353.273 438.025 353.612 438.615 353.854C439.211 354.097 439.835 354.219 440.488 354.219C440.725 354.219 440.962 354.201 441.199 354.167C441.436 354.132 441.676 354.074 441.919 353.993C442.168 353.906 442.425 353.8 442.691 353.672C442.957 353.539 443.24 353.377 443.541 353.187C443.651 353.123 443.74 353.091 443.81 353.091C443.914 353.091 444.009 353.164 444.096 353.308L444.59 354.123C444.631 354.198 444.651 354.268 444.651 354.331C444.651 354.47 444.582 354.58 444.443 354.661C443.899 355.054 443.301 355.363 442.648 355.589C441.994 355.809 441.289 355.918 440.532 355.918C439.919 355.918 439.329 355.84 438.762 355.684C438.202 355.528 437.676 355.306 437.184 355.017C436.698 354.727 436.253 354.383 435.849 353.985C435.45 353.58 435.106 353.135 434.817 352.649C434.533 352.158 434.314 351.631 434.157 351.071C434.001 350.504 433.923 349.914 433.923 349.301C433.923 348.694 434.001 348.11 434.157 347.55C434.314 346.983 434.536 346.454 434.825 345.963C435.114 345.471 435.458 345.023 435.857 344.618C436.262 344.214 436.71 343.87 437.201 343.586C437.693 343.297 438.219 343.075 438.78 342.919C439.346 342.757 439.936 342.676 440.549 342.676C441.272 342.676 441.957 342.783 442.604 342.997C443.252 343.211 443.865 343.523 444.443 343.933Z" fill="white"/>
    <path d="M452.507 343.266C452.507 342.988 452.634 342.849 452.888 342.849H457.892C458.47 342.849 459.008 342.959 459.505 343.179C460.002 343.393 460.436 343.688 460.806 344.063C461.176 344.433 461.465 344.87 461.673 345.373C461.887 345.87 461.994 346.402 461.994 346.969C461.994 347.373 461.936 347.764 461.821 348.139C461.711 348.509 461.555 348.853 461.352 349.171C461.15 349.489 460.907 349.776 460.624 350.03C460.341 350.279 460.026 350.487 459.679 350.654L461.968 355.346V355.459C461.968 355.638 461.861 355.728 461.647 355.728H460.598C460.419 355.728 460.28 355.621 460.182 355.407L458.1 351.036C458.054 351.042 458.002 351.045 457.944 351.045C457.892 351.045 457.814 351.047 457.71 351.053C457.612 351.053 457.479 351.053 457.311 351.053C457.143 351.053 456.921 351.053 456.643 351.053C456.372 351.053 456.036 351.053 455.637 351.053C455.238 351.053 454.756 351.053 454.189 351.053V355.346C454.189 355.6 454.056 355.728 453.79 355.728H452.888C452.634 355.728 452.507 355.6 452.507 355.346V343.266ZM460.329 346.951C460.329 346.633 460.265 346.327 460.138 346.032C460.017 345.737 459.846 345.477 459.627 345.251C459.413 345.026 459.155 344.847 458.855 344.714C458.56 344.575 458.239 344.506 457.892 344.506H454.189V349.397H457.927C458.268 349.397 458.586 349.33 458.881 349.197C459.176 349.064 459.43 348.885 459.644 348.66C459.858 348.434 460.026 348.174 460.147 347.879C460.268 347.584 460.329 347.275 460.329 346.951Z" fill="white"/>
    <path d="M469.027 343.266C468.947 343.144 468.912 343.046 468.923 342.971C468.941 342.89 469.016 342.849 469.149 342.849H470.554C470.606 342.855 470.649 342.861 470.684 342.867C470.719 342.872 470.75 342.887 470.779 342.91C470.808 342.927 470.837 342.959 470.866 343.005C470.895 343.052 470.932 343.115 470.979 343.196L474.083 348.582H474.109L477.275 343.135C477.338 343.02 477.396 342.948 477.448 342.919C477.5 342.884 477.57 342.861 477.656 342.849H479.105C479.232 342.849 479.295 342.901 479.295 343.005C479.295 343.057 479.264 343.133 479.2 343.231C478.842 343.803 478.486 344.387 478.133 344.983C477.781 345.572 477.428 346.168 477.075 346.769C476.728 347.365 476.376 347.96 476.017 348.556C475.665 349.145 475.306 349.726 474.942 350.299V355.311C474.942 355.589 474.815 355.728 474.56 355.728H473.632C473.39 355.728 473.268 355.589 473.268 355.311V350.342L469.027 343.266Z" fill="white"/>
    <path d="M486.745 343.266C486.745 342.988 486.878 342.849 487.144 342.849H491.454C492.026 342.849 492.555 342.956 493.041 343.17C493.532 343.384 493.957 343.676 494.316 344.046C494.674 344.41 494.954 344.838 495.157 345.33C495.359 345.815 495.46 346.33 495.46 346.873C495.46 347.405 495.359 347.911 495.157 348.391C494.96 348.871 494.683 349.296 494.324 349.666C493.972 350.03 493.552 350.322 493.067 350.542C492.587 350.756 492.064 350.862 491.497 350.862H488.418V355.346C488.418 355.6 488.291 355.728 488.037 355.728H487.126C486.872 355.728 486.745 355.6 486.745 355.346V343.266ZM493.787 346.856C493.787 346.549 493.726 346.255 493.604 345.971C493.483 345.688 493.315 345.439 493.101 345.225C492.893 345.006 492.648 344.832 492.364 344.705C492.081 344.572 491.777 344.506 491.454 344.506H488.418V349.206H491.454C491.766 349.206 492.064 349.142 492.347 349.015C492.63 348.888 492.879 348.718 493.093 348.504C493.307 348.284 493.474 348.032 493.596 347.749C493.723 347.466 493.787 347.168 493.787 346.856Z" fill="white"/>
    <path d="M511.923 342.849C512.027 342.849 512.12 342.881 512.201 342.945C512.287 343.008 512.336 343.104 512.348 343.231V344.107C512.348 344.222 512.313 344.324 512.244 344.41C512.174 344.491 512.068 344.532 511.923 344.532H508.315V355.329C508.315 355.433 508.281 355.525 508.211 355.606C508.142 355.687 508.044 355.728 507.916 355.728H507.04C506.936 355.728 506.844 355.69 506.763 355.615C506.682 355.54 506.642 355.444 506.642 355.329V344.532H503.017C502.901 344.532 502.805 344.497 502.73 344.428C502.655 344.358 502.618 344.251 502.618 344.107V343.231C502.618 343.115 502.655 343.023 502.73 342.953C502.805 342.884 502.901 342.849 503.017 342.849H511.923Z" fill="white"/>
    <path d="M520.503 349.275C520.503 349.732 520.561 350.172 520.677 350.594C520.798 351.01 520.966 351.403 521.18 351.773C521.394 352.137 521.651 352.47 521.952 352.77C522.252 353.071 522.585 353.328 522.949 353.542C523.319 353.756 523.712 353.924 524.128 354.045C524.55 354.161 524.99 354.219 525.447 354.219C525.898 354.219 526.334 354.161 526.756 354.045C527.178 353.924 527.571 353.756 527.936 353.542C528.3 353.328 528.632 353.071 528.933 352.77C529.233 352.47 529.491 352.137 529.705 351.773C529.919 351.403 530.083 351.01 530.199 350.594C530.32 350.172 530.381 349.732 530.381 349.275C530.381 348.593 530.251 347.954 529.991 347.359C529.731 346.758 529.378 346.234 528.933 345.789C528.488 345.344 527.964 344.991 527.363 344.731C526.768 344.471 526.129 344.341 525.447 344.341C524.99 344.341 524.55 344.402 524.128 344.523C523.712 344.639 523.319 344.803 522.949 345.017C522.585 345.231 522.252 345.489 521.952 345.789C521.651 346.09 521.394 346.422 521.18 346.786C520.966 347.151 520.798 347.544 520.677 347.966C520.561 348.388 520.503 348.824 520.503 349.275ZM525.464 342.676C526.071 342.676 526.655 342.754 527.216 342.91C527.782 343.066 528.308 343.289 528.794 343.578C529.286 343.867 529.734 344.214 530.138 344.618C530.543 345.017 530.887 345.465 531.17 345.963C531.459 346.454 531.682 346.983 531.838 347.55C532 348.116 532.081 348.706 532.081 349.319C532.081 349.926 532.003 350.513 531.847 351.079C531.691 351.64 531.468 352.166 531.179 352.658C530.89 353.143 530.543 353.588 530.138 353.993C529.739 354.392 529.294 354.736 528.803 355.025C528.311 355.308 527.782 355.528 527.216 355.684C526.649 355.84 526.059 355.918 525.447 355.918C524.834 355.918 524.244 355.84 523.677 355.684C523.117 355.528 522.59 355.306 522.099 355.017C521.613 354.727 521.168 354.383 520.763 353.985C520.365 353.58 520.021 353.135 519.731 352.649C519.448 352.158 519.229 351.631 519.072 351.071C518.916 350.504 518.838 349.914 518.838 349.301C518.838 348.694 518.916 348.11 519.072 347.55C519.229 346.983 519.451 346.454 519.74 345.963C520.029 345.471 520.373 345.023 520.772 344.618C521.177 344.214 521.625 343.87 522.116 343.586C522.608 343.297 523.134 343.075 523.695 342.919C524.261 342.757 524.851 342.676 525.464 342.676Z" fill="white"/>
    <path d="M548.886 350.42C548.886 350.166 549.013 350.039 549.268 350.039H550.161C550.265 350.039 550.358 350.073 550.439 350.143C550.52 350.206 550.56 350.299 550.56 350.42V354.297C550.56 354.366 550.546 354.433 550.517 354.496C550.488 354.554 550.439 354.603 550.369 354.644L550.3 354.696C549.756 355.089 549.158 355.392 548.505 355.606C547.851 355.814 547.146 355.918 546.389 355.918C545.776 355.918 545.186 355.84 544.619 355.684C544.059 355.528 543.533 355.306 543.041 355.017C542.555 354.727 542.11 354.383 541.706 353.985C541.307 353.58 540.963 353.135 540.674 352.649C540.39 352.158 540.171 351.631 540.014 351.071C539.858 350.504 539.78 349.914 539.78 349.301C539.78 348.694 539.858 348.11 540.014 347.55C540.171 346.989 540.393 346.463 540.682 345.971C540.971 345.48 541.315 345.032 541.714 344.627C542.119 344.222 542.564 343.875 543.05 343.586C543.541 343.297 544.067 343.075 544.628 342.919C545.195 342.757 545.784 342.676 546.397 342.676C547.108 342.676 547.794 342.786 548.453 343.005C549.112 343.219 549.727 343.529 550.3 343.933C550.363 343.98 550.415 344.034 550.456 344.098C550.496 344.156 550.517 344.217 550.517 344.28C550.517 344.361 550.494 344.43 550.447 344.488L549.988 345.251C549.889 345.39 549.788 345.46 549.684 345.46C549.644 345.46 549.597 345.451 549.545 345.434C549.499 345.41 549.444 345.376 549.381 345.33C548.964 345.035 548.51 344.803 548.019 344.636C547.533 344.462 547.013 344.376 546.458 344.376C545.741 344.376 545.076 344.511 544.463 344.783C543.856 345.055 543.327 345.419 542.876 345.876C542.431 346.333 542.081 346.859 541.827 347.454C541.573 348.05 541.445 348.671 541.445 349.319C541.445 350.007 541.575 350.651 541.836 351.253C542.096 351.848 542.448 352.369 542.894 352.814C543.339 353.253 543.856 353.6 544.446 353.854C545.042 354.109 545.675 354.236 546.345 354.236C546.767 354.236 547.186 354.17 547.603 354.037C548.025 353.898 548.453 353.736 548.886 353.551V350.42Z" fill="white"/>
    <path d="M558.735 343.266C558.735 342.988 558.862 342.849 559.116 342.849H564.12C564.698 342.849 565.236 342.959 565.733 343.179C566.23 343.393 566.664 343.688 567.034 344.063C567.404 344.433 567.693 344.87 567.901 345.373C568.115 345.87 568.222 346.402 568.222 346.969C568.222 347.373 568.164 347.764 568.049 348.139C567.939 348.509 567.783 348.853 567.58 349.171C567.378 349.489 567.135 349.776 566.852 350.03C566.569 350.279 566.254 350.487 565.907 350.654L568.196 355.346V355.459C568.196 355.638 568.089 355.728 567.875 355.728H566.826C566.647 355.728 566.508 355.621 566.41 355.407L564.328 351.036C564.282 351.042 564.23 351.045 564.172 351.045C564.12 351.045 564.042 351.047 563.938 351.053C563.84 351.053 563.707 351.053 563.539 351.053C563.371 351.053 563.149 351.053 562.871 351.053C562.6 351.053 562.264 351.053 561.865 351.053C561.466 351.053 560.984 351.053 560.417 351.053V355.346C560.417 355.6 560.284 355.728 560.018 355.728H559.116C558.862 355.728 558.735 355.6 558.735 355.346V343.266ZM566.557 346.951C566.557 346.633 566.493 346.327 566.366 346.032C566.245 345.737 566.074 345.477 565.855 345.251C565.641 345.026 565.383 344.847 565.083 344.714C564.788 344.575 564.467 344.506 564.12 344.506H560.417V349.397H564.155C564.496 349.397 564.814 349.33 565.109 349.197C565.404 349.064 565.658 348.885 565.872 348.66C566.086 348.434 566.254 348.174 566.375 347.879C566.496 347.584 566.557 347.275 566.557 346.951Z" fill="white"/>
    <path d="M577.424 355.407C577.383 355.505 577.325 355.583 577.25 355.641C577.175 355.699 577.08 355.728 576.964 355.728H576.045C575.779 355.728 575.646 355.626 575.646 355.424C575.646 355.384 575.646 355.352 575.646 355.329C575.652 355.3 575.657 355.274 575.663 355.251C575.669 355.228 575.675 355.207 575.68 355.19L580.684 343.17C580.696 343.141 580.71 343.109 580.728 343.075C580.745 343.034 580.768 343 580.797 342.971C580.826 342.936 580.866 342.907 580.919 342.884C580.976 342.861 581.051 342.849 581.144 342.849H581.716C581.803 342.849 581.872 342.861 581.924 342.884C581.982 342.907 582.026 342.936 582.055 342.971C582.083 343 582.107 343.034 582.124 343.075C582.141 343.109 582.156 343.141 582.167 343.17L587.128 355.19C587.134 355.219 587.139 355.248 587.145 355.277C587.151 355.306 587.157 355.335 587.163 355.363C587.168 355.387 587.171 355.407 587.171 355.424C587.171 355.626 587.038 355.728 586.772 355.728H585.853C585.737 355.728 585.642 355.699 585.567 355.641C585.492 355.583 585.434 355.505 585.393 355.407L584.439 353.022H578.351C578.149 353.536 577.964 354.002 577.796 354.418C577.629 354.834 577.504 355.164 577.424 355.407ZM579.045 351.339H583.772L581.43 345.408L579.045 351.339Z" fill="white"/>
    <path d="M594.852 343.266C594.852 342.988 594.985 342.849 595.251 342.849H599.301C599.92 342.849 600.51 342.924 601.07 343.075C601.631 343.225 602.152 343.439 602.631 343.716C603.111 343.994 603.545 344.329 603.932 344.722C604.32 345.116 604.649 345.552 604.921 346.032C605.198 346.506 605.412 347.021 605.563 347.576C605.713 348.125 605.788 348.7 605.788 349.301C605.788 349.897 605.71 350.469 605.554 351.019C605.404 351.562 605.187 352.074 604.904 352.554C604.626 353.028 604.291 353.461 603.898 353.854C603.504 354.242 603.068 354.574 602.588 354.852C602.108 355.129 601.591 355.346 601.036 355.502C600.481 355.652 599.903 355.728 599.301 355.728H595.251C595.147 355.728 595.055 355.705 594.974 355.658C594.893 355.606 594.852 355.508 594.852 355.363V343.266ZM599.258 354.071C599.963 354.071 600.614 353.941 601.209 353.681C601.805 353.421 602.316 353.071 602.744 352.632C603.178 352.186 603.516 351.669 603.759 351.079C604.002 350.49 604.123 349.865 604.123 349.206C604.123 348.501 603.996 347.859 603.742 347.281C603.487 346.703 603.14 346.208 602.701 345.798C602.267 345.387 601.758 345.069 601.174 344.844C600.591 344.618 599.966 344.506 599.301 344.506H596.517V354.071H599.258Z" fill="white"/>
    <path d="M444.443 343.933C444.506 343.98 444.558 344.034 444.599 344.098C444.639 344.156 444.66 344.217 444.66 344.28C444.66 344.361 444.637 344.43 444.59 344.488L444.131 345.251C444.032 345.39 443.931 345.46 443.827 345.46C443.787 345.46 443.74 345.451 443.688 345.434C443.642 345.41 443.587 345.376 443.524 345.33C443.107 345.035 442.668 344.809 442.205 344.653C441.749 344.497 441.266 344.404 440.757 344.376C440.011 344.376 439.323 344.511 438.693 344.783C438.063 345.049 437.517 345.41 437.054 345.867C436.597 346.318 436.239 346.844 435.979 347.446C435.718 348.041 435.588 348.671 435.588 349.336C435.588 350.041 435.721 350.695 435.987 351.296C436.253 351.892 436.609 352.406 437.054 352.84C437.505 353.273 438.025 353.612 438.615 353.854C439.211 354.097 439.835 354.219 440.488 354.219C440.725 354.219 440.962 354.201 441.199 354.167C441.436 354.132 441.676 354.074 441.919 353.993C442.168 353.906 442.425 353.8 442.691 353.672C442.957 353.539 443.24 353.377 443.541 353.187C443.651 353.123 443.74 353.091 443.81 353.091C443.914 353.091 444.009 353.164 444.096 353.308L444.59 354.123C444.631 354.198 444.651 354.268 444.651 354.331C444.651 354.47 444.582 354.58 444.443 354.661C443.899 355.054 443.301 355.363 442.648 355.589C441.994 355.809 441.289 355.918 440.532 355.918C439.919 355.918 439.329 355.84 438.762 355.684C438.202 355.528 437.676 355.306 437.184 355.017C436.698 354.727 436.253 354.383 435.849 353.985C435.45 353.58 435.106 353.135 434.817 352.649C434.533 352.158 434.314 351.631 434.157 351.071C434.001 350.504 433.923 349.914 433.923 349.301C433.923 348.694 434.001 348.11 434.157 347.55C434.314 346.983 434.536 346.454 434.825 345.963C435.114 345.471 435.458 345.023 435.857 344.618C436.262 344.214 436.71 343.87 437.201 343.586C437.693 343.297 438.219 343.075 438.78 342.919C439.346 342.757 439.936 342.676 440.549 342.676C441.272 342.676 441.957 342.783 442.604 342.997C443.252 343.211 443.865 343.523 444.443 343.933Z" stroke="white" stroke-width="0.2" mask="url(#path-2-outside-1_2385_1280)"/>
    <path d="M452.507 343.266C452.507 342.988 452.634 342.849 452.888 342.849H457.892C458.47 342.849 459.008 342.959 459.505 343.179C460.002 343.393 460.436 343.688 460.806 344.063C461.176 344.433 461.465 344.87 461.673 345.373C461.887 345.87 461.994 346.402 461.994 346.969C461.994 347.373 461.936 347.764 461.821 348.139C461.711 348.509 461.555 348.853 461.352 349.171C461.15 349.489 460.907 349.776 460.624 350.03C460.341 350.279 460.026 350.487 459.679 350.654L461.968 355.346V355.459C461.968 355.638 461.861 355.728 461.647 355.728H460.598C460.419 355.728 460.28 355.621 460.182 355.407L458.1 351.036C458.054 351.042 458.002 351.045 457.944 351.045C457.892 351.045 457.814 351.047 457.71 351.053C457.612 351.053 457.479 351.053 457.311 351.053C457.143 351.053 456.921 351.053 456.643 351.053C456.372 351.053 456.036 351.053 455.637 351.053C455.238 351.053 454.756 351.053 454.189 351.053V355.346C454.189 355.6 454.056 355.728 453.79 355.728H452.888C452.634 355.728 452.507 355.6 452.507 355.346V343.266ZM460.329 346.951C460.329 346.633 460.265 346.327 460.138 346.032C460.017 345.737 459.846 345.477 459.627 345.251C459.413 345.026 459.155 344.847 458.855 344.714C458.56 344.575 458.239 344.506 457.892 344.506H454.189V349.397H457.927C458.268 349.397 458.586 349.33 458.881 349.197C459.176 349.064 459.43 348.885 459.644 348.66C459.858 348.434 460.026 348.174 460.147 347.879C460.268 347.584 460.329 347.275 460.329 346.951Z" stroke="white" stroke-width="0.2" mask="url(#path-2-outside-1_2385_1280)"/>
    <path d="M469.027 343.266C468.947 343.144 468.912 343.046 468.923 342.971C468.941 342.89 469.016 342.849 469.149 342.849H470.554C470.606 342.855 470.649 342.861 470.684 342.867C470.719 342.872 470.75 342.887 470.779 342.91C470.808 342.927 470.837 342.959 470.866 343.005C470.895 343.052 470.932 343.115 470.979 343.196L474.083 348.582H474.109L477.275 343.135C477.338 343.02 477.396 342.948 477.448 342.919C477.5 342.884 477.57 342.861 477.656 342.849H479.105C479.232 342.849 479.295 342.901 479.295 343.005C479.295 343.057 479.264 343.133 479.2 343.231C478.842 343.803 478.486 344.387 478.133 344.983C477.781 345.572 477.428 346.168 477.075 346.769C476.728 347.365 476.376 347.96 476.017 348.556C475.665 349.145 475.306 349.726 474.942 350.299V355.311C474.942 355.589 474.815 355.728 474.56 355.728H473.632C473.39 355.728 473.268 355.589 473.268 355.311V350.342L469.027 343.266Z" stroke="white" stroke-width="0.2" mask="url(#path-2-outside-1_2385_1280)"/>
    <path d="M486.745 343.266C486.745 342.988 486.878 342.849 487.144 342.849H491.454C492.026 342.849 492.555 342.956 493.041 343.17C493.532 343.384 493.957 343.676 494.316 344.046C494.674 344.41 494.954 344.838 495.157 345.33C495.359 345.815 495.46 346.33 495.46 346.873C495.46 347.405 495.359 347.911 495.157 348.391C494.96 348.871 494.683 349.296 494.324 349.666C493.972 350.03 493.552 350.322 493.067 350.542C492.587 350.756 492.064 350.862 491.497 350.862H488.418V355.346C488.418 355.6 488.291 355.728 488.037 355.728H487.126C486.872 355.728 486.745 355.6 486.745 355.346V343.266ZM493.787 346.856C493.787 346.549 493.726 346.255 493.604 345.971C493.483 345.688 493.315 345.439 493.101 345.225C492.893 345.006 492.648 344.832 492.364 344.705C492.081 344.572 491.777 344.506 491.454 344.506H488.418V349.206H491.454C491.766 349.206 492.064 349.142 492.347 349.015C492.63 348.888 492.879 348.718 493.093 348.504C493.307 348.284 493.474 348.032 493.596 347.749C493.723 347.466 493.787 347.168 493.787 346.856Z" stroke="white" stroke-width="0.2" mask="url(#path-2-outside-1_2385_1280)"/>
    <path d="M511.923 342.849C512.027 342.849 512.12 342.881 512.201 342.945C512.287 343.008 512.336 343.104 512.348 343.231V344.107C512.348 344.222 512.313 344.324 512.244 344.41C512.174 344.491 512.068 344.532 511.923 344.532H508.315V355.329C508.315 355.433 508.281 355.525 508.211 355.606C508.142 355.687 508.044 355.728 507.916 355.728H507.04C506.936 355.728 506.844 355.69 506.763 355.615C506.682 355.54 506.642 355.444 506.642 355.329V344.532H503.017C502.901 344.532 502.805 344.497 502.73 344.428C502.655 344.358 502.618 344.251 502.618 344.107V343.231C502.618 343.115 502.655 343.023 502.73 342.953C502.805 342.884 502.901 342.849 503.017 342.849H511.923Z" stroke="white" stroke-width="0.2" mask="url(#path-2-outside-1_2385_1280)"/>
    <path d="M520.503 349.275C520.503 349.732 520.561 350.172 520.677 350.594C520.798 351.01 520.966 351.403 521.18 351.773C521.394 352.137 521.651 352.47 521.952 352.77C522.252 353.071 522.585 353.328 522.949 353.542C523.319 353.756 523.712 353.924 524.128 354.045C524.55 354.161 524.99 354.219 525.447 354.219C525.898 354.219 526.334 354.161 526.756 354.045C527.178 353.924 527.571 353.756 527.936 353.542C528.3 353.328 528.632 353.071 528.933 352.77C529.233 352.47 529.491 352.137 529.705 351.773C529.919 351.403 530.083 351.01 530.199 350.594C530.32 350.172 530.381 349.732 530.381 349.275C530.381 348.593 530.251 347.954 529.991 347.359C529.731 346.758 529.378 346.234 528.933 345.789C528.488 345.344 527.964 344.991 527.363 344.731C526.768 344.471 526.129 344.341 525.447 344.341C524.99 344.341 524.55 344.402 524.128 344.523C523.712 344.639 523.319 344.803 522.949 345.017C522.585 345.231 522.252 345.489 521.952 345.789C521.651 346.09 521.394 346.422 521.18 346.786C520.966 347.151 520.798 347.544 520.677 347.966C520.561 348.388 520.503 348.824 520.503 349.275ZM525.464 342.676C526.071 342.676 526.655 342.754 527.216 342.91C527.782 343.066 528.308 343.289 528.794 343.578C529.286 343.867 529.734 344.214 530.138 344.618C530.543 345.017 530.887 345.465 531.17 345.963C531.459 346.454 531.682 346.983 531.838 347.55C532 348.116 532.081 348.706 532.081 349.319C532.081 349.926 532.003 350.513 531.847 351.079C531.691 351.64 531.468 352.166 531.179 352.658C530.89 353.143 530.543 353.588 530.138 353.993C529.739 354.392 529.294 354.736 528.803 355.025C528.311 355.308 527.782 355.528 527.216 355.684C526.649 355.84 526.059 355.918 525.447 355.918C524.834 355.918 524.244 355.84 523.677 355.684C523.117 355.528 522.59 355.306 522.099 355.017C521.613 354.727 521.168 354.383 520.763 353.985C520.365 353.58 520.021 353.135 519.731 352.649C519.448 352.158 519.229 351.631 519.072 351.071C518.916 350.504 518.838 349.914 518.838 349.301C518.838 348.694 518.916 348.11 519.072 347.55C519.229 346.983 519.451 346.454 519.74 345.963C520.029 345.471 520.373 345.023 520.772 344.618C521.177 344.214 521.625 343.87 522.116 343.586C522.608 343.297 523.134 343.075 523.695 342.919C524.261 342.757 524.851 342.676 525.464 342.676Z" stroke="white" stroke-width="0.2" mask="url(#path-2-outside-1_2385_1280)"/>
    <path d="M548.886 350.42C548.886 350.166 549.013 350.039 549.268 350.039H550.161C550.265 350.039 550.358 350.073 550.439 350.143C550.52 350.206 550.56 350.299 550.56 350.42V354.297C550.56 354.366 550.546 354.433 550.517 354.496C550.488 354.554 550.439 354.603 550.369 354.644L550.3 354.696C549.756 355.089 549.158 355.392 548.505 355.606C547.851 355.814 547.146 355.918 546.389 355.918C545.776 355.918 545.186 355.84 544.619 355.684C544.059 355.528 543.533 355.306 543.041 355.017C542.555 354.727 542.11 354.383 541.706 353.985C541.307 353.58 540.963 353.135 540.674 352.649C540.39 352.158 540.171 351.631 540.014 351.071C539.858 350.504 539.78 349.914 539.78 349.301C539.78 348.694 539.858 348.11 540.014 347.55C540.171 346.989 540.393 346.463 540.682 345.971C540.971 345.48 541.315 345.032 541.714 344.627C542.119 344.222 542.564 343.875 543.05 343.586C543.541 343.297 544.067 343.075 544.628 342.919C545.195 342.757 545.784 342.676 546.397 342.676C547.108 342.676 547.794 342.786 548.453 343.005C549.112 343.219 549.727 343.529 550.3 343.933C550.363 343.98 550.415 344.034 550.456 344.098C550.496 344.156 550.517 344.217 550.517 344.28C550.517 344.361 550.494 344.43 550.447 344.488L549.988 345.251C549.889 345.39 549.788 345.46 549.684 345.46C549.644 345.46 549.597 345.451 549.545 345.434C549.499 345.41 549.444 345.376 549.381 345.33C548.964 345.035 548.51 344.803 548.019 344.636C547.533 344.462 547.013 344.376 546.458 344.376C545.741 344.376 545.076 344.511 544.463 344.783C543.856 345.055 543.327 345.419 542.876 345.876C542.431 346.333 542.081 346.859 541.827 347.454C541.573 348.05 541.445 348.671 541.445 349.319C541.445 350.007 541.575 350.651 541.836 351.253C542.096 351.848 542.448 352.369 542.894 352.814C543.339 353.253 543.856 353.6 544.446 353.854C545.042 354.109 545.675 354.236 546.345 354.236C546.767 354.236 547.186 354.17 547.603 354.037C548.025 353.898 548.453 353.736 548.886 353.551V350.42Z" stroke="white" stroke-width="0.2" mask="url(#path-2-outside-1_2385_1280)"/>
    <path d="M558.735 343.266C558.735 342.988 558.862 342.849 559.116 342.849H564.12C564.698 342.849 565.236 342.959 565.733 343.179C566.23 343.393 566.664 343.688 567.034 344.063C567.404 344.433 567.693 344.87 567.901 345.373C568.115 345.87 568.222 346.402 568.222 346.969C568.222 347.373 568.164 347.764 568.049 348.139C567.939 348.509 567.783 348.853 567.58 349.171C567.378 349.489 567.135 349.776 566.852 350.03C566.569 350.279 566.254 350.487 565.907 350.654L568.196 355.346V355.459C568.196 355.638 568.089 355.728 567.875 355.728H566.826C566.647 355.728 566.508 355.621 566.41 355.407L564.328 351.036C564.282 351.042 564.23 351.045 564.172 351.045C564.12 351.045 564.042 351.047 563.938 351.053C563.84 351.053 563.707 351.053 563.539 351.053C563.371 351.053 563.149 351.053 562.871 351.053C562.6 351.053 562.264 351.053 561.865 351.053C561.466 351.053 560.984 351.053 560.417 351.053V355.346C560.417 355.6 560.284 355.728 560.018 355.728H559.116C558.862 355.728 558.735 355.6 558.735 355.346V343.266ZM566.557 346.951C566.557 346.633 566.493 346.327 566.366 346.032C566.245 345.737 566.074 345.477 565.855 345.251C565.641 345.026 565.383 344.847 565.083 344.714C564.788 344.575 564.467 344.506 564.12 344.506H560.417V349.397H564.155C564.496 349.397 564.814 349.33 565.109 349.197C565.404 349.064 565.658 348.885 565.872 348.66C566.086 348.434 566.254 348.174 566.375 347.879C566.496 347.584 566.557 347.275 566.557 346.951Z" stroke="white" stroke-width="0.2" mask="url(#path-2-outside-1_2385_1280)"/>
    <path d="M577.424 355.407C577.383 355.505 577.325 355.583 577.25 355.641C577.175 355.699 577.08 355.728 576.964 355.728H576.045C575.779 355.728 575.646 355.626 575.646 355.424C575.646 355.384 575.646 355.352 575.646 355.329C575.652 355.3 575.657 355.274 575.663 355.251C575.669 355.228 575.675 355.207 575.68 355.19L580.684 343.17C580.696 343.141 580.71 343.109 580.728 343.075C580.745 343.034 580.768 343 580.797 342.971C580.826 342.936 580.866 342.907 580.919 342.884C580.976 342.861 581.051 342.849 581.144 342.849H581.716C581.803 342.849 581.872 342.861 581.924 342.884C581.982 342.907 582.026 342.936 582.055 342.971C582.083 343 582.107 343.034 582.124 343.075C582.141 343.109 582.156 343.141 582.167 343.17L587.128 355.19C587.134 355.219 587.139 355.248 587.145 355.277C587.151 355.306 587.157 355.335 587.163 355.363C587.168 355.387 587.171 355.407 587.171 355.424C587.171 355.626 587.038 355.728 586.772 355.728H585.853C585.737 355.728 585.642 355.699 585.567 355.641C585.492 355.583 585.434 355.505 585.393 355.407L584.439 353.022H578.351C578.149 353.536 577.964 354.002 577.796 354.418C577.629 354.834 577.504 355.164 577.424 355.407ZM579.045 351.339H583.772L581.43 345.408L579.045 351.339Z" stroke="white" stroke-width="0.2" mask="url(#path-2-outside-1_2385_1280)"/>
    <path d="M594.852 343.266C594.852 342.988 594.985 342.849 595.251 342.849H599.301C599.92 342.849 600.51 342.924 601.07 343.075C601.631 343.225 602.152 343.439 602.631 343.716C603.111 343.994 603.545 344.329 603.932 344.722C604.32 345.116 604.649 345.552 604.921 346.032C605.198 346.506 605.412 347.021 605.563 347.576C605.713 348.125 605.788 348.7 605.788 349.301C605.788 349.897 605.71 350.469 605.554 351.019C605.404 351.562 605.187 352.074 604.904 352.554C604.626 353.028 604.291 353.461 603.898 353.854C603.504 354.242 603.068 354.574 602.588 354.852C602.108 355.129 601.591 355.346 601.036 355.502C600.481 355.652 599.903 355.728 599.301 355.728H595.251C595.147 355.728 595.055 355.705 594.974 355.658C594.893 355.606 594.852 355.508 594.852 355.363V343.266ZM599.258 354.071C599.963 354.071 600.614 353.941 601.209 353.681C601.805 353.421 602.316 353.071 602.744 352.632C603.178 352.186 603.516 351.669 603.759 351.079C604.002 350.49 604.123 349.865 604.123 349.206C604.123 348.501 603.996 347.859 603.742 347.281C603.487 346.703 603.14 346.208 602.701 345.798C602.267 345.387 601.758 345.069 601.174 344.844C600.591 344.618 599.966 344.506 599.301 344.506H596.517V354.071H599.258Z" stroke="white" stroke-width="0.2" mask="url(#path-2-outside-1_2385_1280)"/>
    <rect x="432.999" y="271.957" width="43.3617" height="43.3617" fill="white"/>
    <rect x="476.363" y="228.604" width="43.3617" height="43.3617" fill="white"/>
    <path d="M476.363 228.602L519.725 185.24V228.602H476.363Z" fill="white"/>
    <path d="M519.725 315.32L476.363 271.959L519.725 271.959L519.725 315.32Z" fill="white"/>
    <rect x="519.72" y="271.957" width="43.3617" height="43.3617" fill="white"/>
    <path d="M563.086 228.604L606.448 271.965L563.086 271.965L563.086 228.604Z" fill="white"/>
    <path d="M606.448 271.959L563.086 315.32L563.086 271.959L606.448 271.959Z" fill="white"/>
    <rect x="519.72" y="185.24" width="43.3617" height="43.3617" fill="white"/>
    <path d="M995.824 474.667C995.824 485.757 986.834 494.748 975.743 494.748C964.653 494.748 955.662 485.757 955.662 474.667C955.662 463.576 964.653 454.586 975.743 454.586C986.834 454.586 995.824 463.576 995.824 474.667Z" fill="#FDFDFD"/>
    <path d="M970.35 499.939C954.142 499.939 941 486.797 941 470.589C941 454.381 954.142 441.239 970.35 441.239C986.558 441.239 999.7 454.381 999.7 470.589C999.7 486.797 986.558 499.939 970.35 499.939ZM979.79 470.137L965.482 459.727C965.404 459.671 965.311 459.637 965.215 459.63C965.119 459.623 965.022 459.642 964.936 459.686C964.85 459.73 964.778 459.797 964.728 459.88C964.677 459.962 964.65 460.057 964.65 460.153V480.96C964.65 481.057 964.676 481.152 964.727 481.235C964.777 481.317 964.849 481.384 964.936 481.428C965.022 481.473 965.118 481.492 965.215 481.484C965.311 481.477 965.404 481.443 965.482 481.386L979.79 470.983C979.858 470.935 979.913 470.871 979.951 470.798C979.989 470.724 980.009 470.643 980.009 470.56C980.009 470.477 979.989 470.396 979.951 470.322C979.913 470.249 979.858 470.185 979.79 470.137Z" fill="#6754F8"/>
    </svg>
    