<svg width="2696" height="2126" viewBox="0 0 2696 2126" fill="none" xmlns="http://www.w3.org/2000/svg">
<g filter="url(#filter0_f_108_846)">
<path d="M1326 1063C1326 1208.25 1208.25 1326 1063 1326C917.749 1326 800 1208.25 800 1063C800 917.749 917.749 800 1063 800C1208.25 800 1326 917.749 1326 1063Z" fill="#743FE0"/>
</g>
<g filter="url(#filter1_f_108_846)">
<path d="M1896 1063C1896 1208.25 1778.25 1326 1633 1326C1487.75 1326 1370 1208.25 1370 1063C1370 917.749 1487.75 800 1633 800C1778.25 800 1896 917.749 1896 1063Z" fill="#743FE0"/>
</g>
<defs>
<filter id="filter0_f_108_846" x="0" y="0" width="2126" height="2126" filterUnits="userSpaceOnUse" color-interpolation-filters="sRGB">
<feFlood flood-opacity="0" result="BackgroundImageFix"/>
<feBlend mode="normal" in="SourceGraphic" in2="BackgroundImageFix" result="shape"/>
<feGaussianBlur stdDeviation="400" result="effect1_foregroundBlur_108_846"/>
</filter>
<filter id="filter1_f_108_846" x="570" y="0" width="2126" height="2126" filterUnits="userSpaceOnUse" color-interpolation-filters="sRGB">
<feFlood flood-opacity="0" result="BackgroundImageFix"/>
<feBlend mode="normal" in="SourceGraphic" in2="BackgroundImageFix" result="shape"/>
<feGaussianBlur stdDeviation="400" result="effect1_foregroundBlur_108_846"/>
</filter>
</defs>
</svg>
