<svg width="140" height="56" viewBox="0 0 140 56" fill="none" xmlns="http://www.w3.org/2000/svg">
<path d="M49.6165 37.0475H53.7751V29.9184H55.5832L60.0001 37.0475H64.4428L59.561 29.1952C61.7307 28.5495 63.358 27.0771 63.358 24.2875V24.1842C63.358 20.3614 60.5942 18.5791 56.2289 18.5791H49.6165V37.0475ZM53.7751 27.0771V21.782H56.1256C58.1404 21.782 59.2769 22.4278 59.2769 24.3133V24.4167C59.2769 26.199 58.2179 27.0771 56.1256 27.0771H53.7751Z" fill="white"/>
<path d="M71.5807 37.3316C75.2743 37.3316 77.599 35.7044 78.0381 32.7855H74.4994C74.2669 33.9221 73.4146 34.6712 71.684 34.6712C69.6434 34.6712 68.4295 33.3797 68.3261 31.1325H78.064V30.0993C78.064 25.269 74.9644 23.2285 71.4773 23.2285C67.5512 23.2285 64.5291 25.9923 64.5291 30.2542V30.4608C64.5291 34.7745 67.4995 37.3316 71.5807 37.3316ZM68.3777 28.8336C68.6619 26.9222 69.7984 25.8115 71.4773 25.8115C73.2596 25.8115 74.2928 26.793 74.422 28.8336H68.3777Z" fill="white"/>
<path d="M79.844 37.0475H83.5635V17.4167H79.844V37.0475Z" fill="white"/>
<path d="M90.6997 37.3316C92.9213 37.3316 94.2898 36.2984 94.9871 34.9295V37.0475H98.7068V23.5385H94.9871V31.4682C94.9871 33.4572 93.7473 34.4387 92.1723 34.4387C90.571 34.4387 89.8212 33.5604 89.8212 31.7265V23.5385H86.1021V32.2431C86.1021 35.7818 88.065 37.3316 90.6997 37.3316Z" fill="white"/>
<path d="M101.246 37.0475H104.992V29.0661C104.992 27.2322 106.154 26.3022 107.6 26.3022C108.918 26.3022 109.718 27.0771 109.718 28.8078V37.0475H113.438V29.0661C113.438 27.2322 114.6 26.3022 116.046 26.3022C117.39 26.3022 118.165 27.0771 118.165 28.8078V37.0475H121.884V28.3945C121.884 24.8041 119.947 23.2285 117.441 23.2285C115.737 23.2285 113.981 23.9517 112.896 25.579C112.25 23.9776 110.907 23.2285 109.124 23.2285C107.109 23.2285 105.663 24.3392 104.992 25.6048V23.5384H101.246V37.0475Z" fill="white"/>
<path d="M130.533 37.3316C134.227 37.3316 136.552 35.7044 136.991 32.7855H133.452C133.219 33.9221 132.367 34.6712 130.636 34.6712C128.596 34.6712 127.382 33.3797 127.279 31.1325H137.017V30.0993C137.017 25.269 133.917 23.2285 130.43 23.2285C126.504 23.2285 123.481 25.9923 123.481 30.2542V30.4608C123.481 34.7745 126.452 37.3316 130.533 37.3316ZM127.331 28.8336C127.615 26.9222 128.752 25.8115 130.43 25.8115C132.212 25.8115 133.246 26.793 133.375 28.8336H127.331Z" fill="white"/>
<path fill-rule="evenodd" clip-rule="evenodd" d="M35.3045 19.684L35.0534 19.2356C34.7295 18.6932 34.2727 18.2425 33.7261 17.9261L21.69 10.9843C21.145 10.6682 20.5263 10.5011 19.8963 10.5H19.3761C18.746 10.5011 18.1274 10.6682 17.5823 10.9843L5.54633 17.9441C5.00278 18.2584 4.55126 18.7099 4.2369 19.2535L3.98578 19.7019C3.66962 20.2469 3.50258 20.8656 3.50146 21.4956V35.3972C3.50258 36.0273 3.66962 36.6459 3.98578 37.1909L4.2369 37.6393C4.55939 38.1766 5.00908 38.6263 5.54633 38.9488L17.6003 45.8905C18.1426 46.2132 18.763 46.3808 19.394 46.3748H19.8963C20.5263 46.3737 21.145 46.2066 21.69 45.8905L33.7261 38.9309C34.275 38.6236 34.7282 38.1704 35.0354 37.6214L35.3045 37.173C35.6168 36.6264 35.7836 36.0087 35.7888 35.3792V21.4777C35.7877 20.8477 35.6207 20.229 35.3045 19.684ZM19.3761 14.0874H19.8963L30.4076 20.1503L19.6451 26.3566L8.88271 20.1503L19.3761 14.0874ZM21.4389 41.8906L31.9322 35.8277L32.2013 35.3793V23.2536L21.4389 29.4779V41.8906Z" fill="white"/>
</svg>
