<svg width="140" height="56" viewBox="0 0 140 56" fill="none" xmlns="http://www.w3.org/2000/svg">
<path fill-rule="evenodd" clip-rule="evenodd" d="M38.5722 16.75L27.0627 39.25H16.252L21.0687 29.925H20.8526C16.8788 35.0835 10.9498 38.4794 2.50195 39.25V30.0541C2.50195 30.0541 7.90627 29.7349 11.0833 26.3947H2.50195V16.7502H12.1465V24.6826L12.3629 24.6818L16.3041 16.7502H23.598V24.6323L23.8143 24.632L27.9033 16.75H38.5722Z" fill="white"/>
<path d="M101.335 36.7665H104.441V18.9375H101.335V36.7665Z" fill="white"/>
<path fill-rule="evenodd" clip-rule="evenodd" d="M84.211 36.5845C84.886 36.8651 85.5725 37.0055 86.2704 37.0055C87.4233 37.0055 88.4549 36.7248 89.3651 36.1635C90.2753 35.6022 90.9808 34.8286 91.4814 33.8425C91.982 32.8488 92.2323 31.7224 92.2323 30.4632C92.2323 29.2041 91.9744 28.0777 91.4586 27.0841C90.9428 26.0904 90.226 25.3205 89.3081 24.7744C88.3904 24.2207 87.3474 23.9476 86.1793 23.9552C85.436 23.9552 84.723 24.0993 84.0403 24.3875C83.3576 24.6758 82.7888 25.0854 82.3336 25.6163C82.2985 25.6568 82.2644 25.6976 82.2313 25.7388V18.949H79.1138V36.7666H82.2085L82.2023 35.1021C82.2823 35.2002 82.3679 35.2961 82.4588 35.3899C82.9518 35.8981 83.5359 36.2962 84.211 36.5845ZM87.3968 33.706C86.8885 34.017 86.3083 34.1725 85.6559 34.1725C85.0111 34.1725 84.4195 34.0131 83.881 33.6946C83.3424 33.3684 82.9139 32.9247 82.5953 32.3633C82.2843 31.8021 82.1288 31.1648 82.1288 30.4518C82.1213 29.7388 82.2729 29.1017 82.5839 28.5404C82.9025 27.9715 83.331 27.5316 83.8696 27.2206C84.4081 26.902 85.0036 26.7465 85.6559 26.7541C86.3083 26.7465 86.8885 26.8982 87.3968 27.2092C87.9125 27.5126 88.3069 27.9488 88.58 28.5177C88.8606 29.079 89.001 29.7237 89.001 30.4518C89.001 31.1801 88.8606 31.8248 88.58 32.3861C88.3069 32.9475 87.9125 33.3874 87.3968 33.706Z" fill="white"/>
<path d="M43.0723 20.0184H46.6221L49.7976 31.6154L53.1758 20.0184H56.134L59.7976 31.3827L62.8469 20.0184H66.1009L61.2995 36.7665H58.2389L54.5134 25.6645L51.0936 36.7665H47.9989L43.0723 20.0184Z" fill="white"/>
<path fill-rule="evenodd" clip-rule="evenodd" d="M71.3432 37.0623C70.1067 37.07 68.9917 36.7968 67.9981 36.2432C67.012 35.6818 66.2346 34.9043 65.6656 33.9107C65.1044 32.9171 64.8237 31.7831 64.8237 30.5087C64.8237 29.2723 65.112 28.1536 65.6885 27.1523C66.2649 26.1511 67.0461 25.3698 68.0322 24.8085C69.0184 24.2472 70.1181 23.9666 71.3317 23.9666C72.6971 23.9666 73.8917 24.27 74.9157 24.8768C75.9474 25.4836 76.7172 26.3445 77.2255 27.4595C77.7412 28.567 77.9271 29.8375 77.783 31.2711H68.0371C68.0644 31.8422 68.2069 32.3618 68.4646 32.8298C68.7529 33.3456 69.1549 33.7476 69.6706 34.0358C70.1865 34.3241 70.7629 34.4682 71.4001 34.4682C71.8855 34.4606 72.3369 34.3772 72.754 34.218C73.1712 34.0511 73.5239 33.8273 73.8121 33.5466C74.108 33.266 74.3166 32.9475 74.438 32.591H77.692C77.4947 33.4632 77.1004 34.2407 76.5087 34.9233C75.917 35.5985 75.1737 36.1256 74.2786 36.5048C73.3836 36.8841 72.4051 37.07 71.3432 37.0623ZM68.476 28.1422C68.2942 28.4592 68.1682 28.8005 68.0981 29.1662H74.5585C74.5116 28.7042 74.369 28.2832 74.1307 27.9033C73.8576 27.4557 73.486 27.1106 73.0157 26.8679C72.5455 26.6176 72.0145 26.4924 71.4229 26.4924C70.7932 26.4924 70.2206 26.6365 69.7047 26.9248C69.189 27.213 68.7794 27.6188 68.476 28.1422Z" fill="white"/>
<path d="M94.5196 24.2282C94.5196 23.2118 94.7508 22.3092 95.2136 21.5203C95.6762 20.7239 96.3248 20.1057 97.1592 19.6657C98.0011 19.2182 98.9835 18.9868 100.106 18.9717V21.7365C99.5826 21.7441 99.1351 21.854 98.7635 22.0664C98.3993 22.2712 98.1187 22.5708 97.9215 22.9653C97.74 23.3284 97.642 23.7494 97.6276 24.2282H100.038V26.8565H97.6257V36.7665H94.5196V26.8565H92.5171V24.2282H94.5196Z" fill="white"/>
<path fill-rule="evenodd" clip-rule="evenodd" d="M112.337 37.0395C111.07 37.0395 109.936 36.7626 108.935 36.209C107.941 35.6476 107.16 34.874 106.591 33.8879C106.03 32.8942 105.749 31.7679 105.749 30.5086C105.749 29.242 106.03 28.1118 106.591 27.1181C107.16 26.1169 107.941 25.3394 108.935 24.7857C109.936 24.2319 111.07 23.9551 112.337 23.9551C113.611 23.9551 114.749 24.2319 115.75 24.7857C116.759 25.3394 117.544 26.1131 118.105 27.1067C118.667 28.1004 118.951 29.2344 118.959 30.5086C118.951 31.7679 118.667 32.8942 118.105 33.8879C117.552 34.874 116.77 35.6476 115.761 36.209C114.753 36.7626 113.611 37.0395 112.337 37.0395ZM112.337 34.1837C113.004 34.1837 113.596 34.032 114.112 33.7286C114.628 33.4176 115.026 32.9852 115.306 32.4315C115.587 31.8702 115.727 31.2292 115.727 30.5086C115.727 29.7805 115.587 29.1357 115.306 28.5745C115.026 28.0132 114.628 27.5808 114.112 27.2774C113.596 26.9664 113.004 26.8109 112.337 26.8109C111.677 26.8109 111.089 26.9664 110.573 27.2774C110.065 27.5808 109.671 28.0132 109.39 28.5745C109.109 29.1357 108.973 29.7805 108.98 30.5086C108.98 31.2292 109.121 31.8702 109.401 32.4315C109.69 32.9852 110.084 33.4176 110.585 33.7286C111.093 34.032 111.677 34.1837 112.337 34.1837Z" fill="white"/>
<path d="M122.315 24.2281H118.856L122.6 36.7665H125.626L128.088 28.7582L130.746 36.7665H133.727L137.482 24.2281H134.353L132.223 32.0325L129.869 24.2281H126.844L124.501 32.2044L122.315 24.2281Z" fill="white"/>
</svg>
