<svg width="1044" height="733" viewBox="0 0 1044 733" fill="none" xmlns="http://www.w3.org/2000/svg">
<path d="M1.87793 70.314H933.217C993.781 70.314 1042.88 119.411 1042.88 179.975V179.975C1042.88 240.54 993.781 289.637 933.217 289.637H118.614C54.1425 289.637 1.87793 341.901 1.87793 406.373V406.373C1.87793 470.844 54.1425 523.109 118.614 523.109H938.775C996.27 523.109 1042.88 569.717 1042.88 627.212V627.212C1042.88 684.706 996.27 731.314 938.775 731.314H799.878" stroke="#6754F8" stroke-width="2" stroke-miterlimit="1" stroke-linecap="round" stroke-dasharray="10 10"/>
<path opacity="0.7" d="M700.224 40.3164V27.7164H704.886C705.894 27.7164 706.728 27.8844 707.388 28.2204C708.048 28.5564 708.54 29.0184 708.864 29.6064C709.188 30.1944 709.35 30.8544 709.35 31.5864C709.35 32.2824 709.194 32.9244 708.882 33.5124C708.57 34.0884 708.084 34.5564 707.424 34.9164C706.764 35.2644 705.918 35.4384 704.886 35.4384H702.528V40.3164H700.224ZM702.528 33.5664H704.742C705.546 33.5664 706.122 33.3924 706.47 33.0444C706.83 32.6844 707.01 32.1984 707.01 31.5864C707.01 30.9624 706.83 30.4764 706.47 30.1284C706.122 29.7684 705.546 29.5884 704.742 29.5884H702.528V33.5664ZM711.104 40.3164V31.3884H713.156L713.372 33.0624C713.696 32.4864 714.134 32.0304 714.686 31.6944C715.25 31.3464 715.91 31.1724 716.666 31.1724V33.6024H716.018C715.514 33.6024 715.064 33.6804 714.668 33.8364C714.272 33.9924 713.96 34.2624 713.732 34.6464C713.516 35.0304 713.408 35.5644 713.408 36.2484V40.3164H711.104ZM722.42 40.5324C721.52 40.5324 720.722 40.3404 720.026 39.9564C719.33 39.5724 718.784 39.0324 718.388 38.3364C717.992 37.6404 717.794 36.8364 717.794 35.9244C717.794 35.0004 717.986 34.1784 718.37 33.4584C718.766 32.7384 719.306 32.1804 719.99 31.7844C720.686 31.3764 721.502 31.1724 722.438 31.1724C723.314 31.1724 724.088 31.3644 724.76 31.7484C725.432 32.1324 725.954 32.6604 726.326 33.3324C726.71 33.9924 726.902 34.7304 726.902 35.5464C726.902 35.6784 726.896 35.8164 726.884 35.9604C726.884 36.1044 726.878 36.2544 726.866 36.4104H720.08C720.128 37.1064 720.368 37.6524 720.8 38.0484C721.244 38.4444 721.778 38.6424 722.402 38.6424C722.87 38.6424 723.26 38.5404 723.572 38.3364C723.896 38.1204 724.136 37.8444 724.292 37.5084H726.632C726.464 38.0724 726.182 38.5884 725.786 39.0564C725.402 39.5124 724.922 39.8724 724.346 40.1364C723.782 40.4004 723.14 40.5324 722.42 40.5324ZM722.438 33.0444C721.874 33.0444 721.376 33.2064 720.944 33.5304C720.512 33.8424 720.236 34.3224 720.116 34.9704H724.562C724.526 34.3824 724.31 33.9144 723.914 33.5664C723.518 33.2184 723.026 33.0444 722.438 33.0444ZM728.642 36.0684V34.1424H736.184V36.0684H728.642ZM742.688 40.5324C741.764 40.5324 740.948 40.3764 740.24 40.0644C739.532 39.7404 738.974 39.2844 738.566 38.6964C738.158 38.0964 737.948 37.3704 737.936 36.5184H740.366C740.39 37.1064 740.6 37.6044 740.996 38.0124C741.404 38.4084 741.962 38.6064 742.67 38.6064C743.282 38.6064 743.768 38.4624 744.128 38.1744C744.488 37.8744 744.668 37.4784 744.668 36.9864C744.668 36.4704 744.506 36.0684 744.182 35.7804C743.87 35.4924 743.45 35.2584 742.922 35.0784C742.394 34.8984 741.83 34.7064 741.23 34.5024C740.258 34.1664 739.514 33.7344 738.998 33.2064C738.494 32.6784 738.242 31.9764 738.242 31.1004C738.23 30.3564 738.404 29.7204 738.764 29.1924C739.136 28.6524 739.64 28.2384 740.276 27.9504C740.912 27.6504 741.644 27.5004 742.472 27.5004C743.312 27.5004 744.05 27.6504 744.686 27.9504C745.334 28.2504 745.838 28.6704 746.198 29.2104C746.57 29.7504 746.768 30.3924 746.792 31.1364H744.326C744.314 30.6924 744.14 30.3024 743.804 29.9664C743.48 29.6184 743.024 29.4444 742.436 29.4444C741.932 29.4324 741.506 29.5584 741.158 29.8224C740.822 30.0744 740.654 30.4464 740.654 30.9384C740.654 31.3584 740.786 31.6944 741.05 31.9464C741.314 32.1864 741.674 32.3904 742.13 32.5584C742.586 32.7264 743.108 32.9064 743.696 33.0984C744.32 33.3144 744.89 33.5664 745.406 33.8544C745.922 34.1424 746.336 34.5264 746.648 35.0064C746.96 35.4744 747.116 36.0804 747.116 36.8244C747.116 37.4844 746.948 38.0964 746.612 38.6604C746.276 39.2244 745.778 39.6804 745.118 40.0284C744.458 40.3644 743.648 40.5324 742.688 40.5324ZM752.15 40.5324C751.382 40.5324 750.752 40.4124 750.26 40.1724C749.768 39.9204 749.402 39.5904 749.162 39.1824C748.922 38.7744 748.802 38.3244 748.802 37.8324C748.802 37.0044 749.126 36.3324 749.774 35.8164C750.422 35.3004 751.394 35.0424 752.69 35.0424H754.958V34.8264C754.958 34.2144 754.784 33.7644 754.436 33.4764C754.088 33.1884 753.656 33.0444 753.14 33.0444C752.672 33.0444 752.264 33.1584 751.916 33.3864C751.568 33.6024 751.352 33.9264 751.268 34.3584H749.018C749.078 33.7104 749.294 33.1464 749.666 32.6664C750.05 32.1864 750.542 31.8204 751.142 31.5684C751.742 31.3044 752.414 31.1724 753.158 31.1724C754.43 31.1724 755.432 31.4904 756.164 32.1264C756.896 32.7624 757.262 33.6624 757.262 34.8264V40.3164H755.3L755.084 38.8764C754.82 39.3564 754.448 39.7524 753.968 40.0644C753.5 40.3764 752.894 40.5324 752.15 40.5324ZM752.672 38.7324C753.332 38.7324 753.842 38.5164 754.202 38.0844C754.574 37.6524 754.808 37.1184 754.904 36.4824H752.942C752.33 36.4824 751.892 36.5964 751.628 36.8244C751.364 37.0404 751.232 37.3104 751.232 37.6344C751.232 37.9824 751.364 38.2524 751.628 38.4444C751.892 38.6364 752.24 38.7324 752.672 38.7324ZM759.461 40.3164V27.3564H761.765V40.3164H759.461ZM768.457 40.5324C767.557 40.5324 766.759 40.3404 766.063 39.9564C765.367 39.5724 764.821 39.0324 764.425 38.3364C764.029 37.6404 763.831 36.8364 763.831 35.9244C763.831 35.0004 764.023 34.1784 764.407 33.4584C764.803 32.7384 765.343 32.1804 766.027 31.7844C766.723 31.3764 767.539 31.1724 768.475 31.1724C769.351 31.1724 770.125 31.3644 770.797 31.7484C771.469 32.1324 771.991 32.6604 772.363 33.3324C772.747 33.9924 772.939 34.7304 772.939 35.5464C772.939 35.6784 772.933 35.8164 772.921 35.9604C772.921 36.1044 772.915 36.2544 772.903 36.4104H766.117C766.165 37.1064 766.405 37.6524 766.837 38.0484C767.281 38.4444 767.815 38.6424 768.439 38.6424C768.907 38.6424 769.297 38.5404 769.609 38.3364C769.933 38.1204 770.173 37.8444 770.329 37.5084H772.669C772.501 38.0724 772.219 38.5884 771.823 39.0564C771.439 39.5124 770.959 39.8724 770.383 40.1364C769.819 40.4004 769.177 40.5324 768.457 40.5324ZM768.475 33.0444C767.911 33.0444 767.413 33.2064 766.981 33.5304C766.549 33.8424 766.273 34.3224 766.153 34.9704H770.599C770.563 34.3824 770.347 33.9144 769.951 33.5664C769.555 33.2184 769.063 33.0444 768.475 33.0444Z" fill="white"/>
<g filter="url(#filter0_f_852_21812)">
<circle cx="736.5" cy="70.3161" r="15.1144" fill="#6855F8"/>
</g>
<rect x="736.5" y="51.3164" width="26.8701" height="26.8701" transform="rotate(45 736.5 51.3164)" fill="#6855F8"/>
<rect x="736.5" y="58.8433" width="16.4041" height="16.4041" transform="rotate(45 736.5 58.8433)" fill="white"/>
<rect x="736.5" y="65.3271" width="7.80096" height="7.80096" transform="rotate(45 736.5 65.3271)" fill="#6855F8"/>
<defs>
<filter id="filter0_f_852_21812" x="666.302" y="0.118042" width="140.396" height="140.396" filterUnits="userSpaceOnUse" color-interpolation-filters="sRGB">
<feFlood flood-opacity="0" result="BackgroundImageFix"/>
<feBlend mode="normal" in="SourceGraphic" in2="BackgroundImageFix" result="shape"/>
<feGaussianBlur stdDeviation="27.5418" result="effect1_foregroundBlur_852_21812"/>
</filter>
</defs>
</svg>
