<svg width="18" height="22" viewBox="0 0 18 22" fill="none" xmlns="http://www.w3.org/2000/svg">
  <path fill-rule="evenodd" clip-rule="evenodd"
    d="M11.6983 0.5C15.0903 0.5 17.0363 2.179 17.0363 5.104V19.64C17.0363 20.25 16.7223 20.799 16.1943 21.106C15.6683 21.414 15.0343 21.42 14.5023 21.12L8.54231 17.753L2.52731 21.127C2.26731 21.273 1.98231 21.347 1.69631 21.347C1.40131 21.347 1.10631 21.268 0.838314 21.11C0.311314 20.803 -0.00268555 20.254 -0.00268555 19.645V4.921C-0.00268555 2.111 1.94431 0.5 5.33931 0.5H11.6983ZM11.6983 2H5.33931C2.79031 2 1.49731 2.982 1.49731 4.921V19.645C1.49731 19.739 1.55131 19.79 1.59631 19.816C1.64131 19.844 1.71231 19.864 1.79431 19.818L8.17631 16.238C8.40431 16.111 8.68331 16.11 8.91231 16.239L15.2393 19.813C15.3223 19.861 15.3933 19.839 15.4383 19.812C15.4833 19.785 15.5363 19.734 15.5363 19.64L15.536 4.99004C15.5284 4.12937 15.3619 2 11.6983 2ZM12.1371 7.2285C12.5511 7.2285 12.8871 7.5645 12.8871 7.9785C12.8871 8.3925 12.5511 8.7285 12.1371 8.7285H4.81911C4.40511 8.7285 4.06911 8.3925 4.06911 7.9785C4.06911 7.5645 4.40511 7.2285 4.81911 7.2285H12.1371Z"
    fill="#918FFF" />
</svg>