<svg width="28" height="28" viewBox="0 0 28 28" fill="none" xmlns="http://www.w3.org/2000/svg">
    <path
        d="M12.6667 20.667H15.3334V12.667H12.6667V20.667ZM14.0001 10.0003C14.3779 10.0003 14.6945 9.87255 14.9501 9.61699C15.2056 9.36144 15.3334 9.04477 15.3334 8.66699C15.3334 8.28921 15.2056 7.97255 14.9501 7.71699C14.6945 7.46144 14.3779 7.33366 14.0001 7.33366C13.6223 7.33366 13.3056 7.46144 13.0501 7.71699C12.7945 7.97255 12.6667 8.28921 12.6667 8.66699C12.6667 9.04477 12.7945 9.36144 13.0501 9.61699C13.3056 9.87255 13.6223 10.0003 14.0001 10.0003ZM14.0001 27.3337C12.1556 27.3337 10.4223 26.9837 8.80008 26.2837C7.17786 25.5837 5.76675 24.6337 4.56675 23.4337C3.36675 22.2337 2.41675 20.8225 1.71675 19.2003C1.01675 17.5781 0.666748 15.8448 0.666748 14.0003C0.666748 12.1559 1.01675 10.4225 1.71675 8.80032C2.41675 7.1781 3.36675 5.76699 4.56675 4.56699C5.76675 3.36699 7.17786 2.41699 8.80008 1.71699C10.4223 1.01699 12.1556 0.666992 14.0001 0.666992C15.8445 0.666992 17.5779 1.01699 19.2001 1.71699C20.8223 2.41699 22.2334 3.36699 23.4334 4.56699C24.6334 5.76699 25.5834 7.1781 26.2834 8.80032C26.9834 10.4225 27.3334 12.1559 27.3334 14.0003C27.3334 15.8448 26.9834 17.5781 26.2834 19.2003C25.5834 20.8225 24.6334 22.2337 23.4334 23.4337C22.2334 24.6337 20.8223 25.5837 19.2001 26.2837C17.5779 26.9837 15.8445 27.3337 14.0001 27.3337ZM14.0001 24.667C16.9779 24.667 19.5001 23.6337 21.5667 21.567C23.6334 19.5003 24.6667 16.9781 24.6667 14.0003C24.6667 11.0225 23.6334 8.50033 21.5667 6.43366C19.5001 4.36699 16.9779 3.33366 14.0001 3.33366C11.0223 3.33366 8.50008 4.36699 6.43341 6.43366C4.36675 8.50033 3.33341 11.0225 3.33341 14.0003C3.33341 16.9781 4.36675 19.5003 6.43341 21.567C8.50008 23.6337 11.0223 24.667 14.0001 24.667Z"
        fill="white" fill-opacity="0.26" />
</svg>
    