<svg width="16" height="17" viewBox="0 0 16 17" fill="none" xmlns="http://www.w3.org/2000/svg">
  <path fill-rule="evenodd" clip-rule="evenodd"
    d="M8.47412 14.5H10.5847C11.8083 14.5 12.8749 13.6672 13.1717 12.4801L14.2525 8.15671C14.4629 7.31518 13.8264 6.5 12.959 6.5H9.66672L10.538 5.00645C11.1861 3.89536 10.3846 2.5 9.09833 2.5H8.33339L5.75456 7.01295C5.697 7.11368 5.66672 7.22769 5.66672 7.34371V12.8099C5.66672 13.0328 5.77812 13.2409 5.96359 13.3646L6.99492 14.0521C7.43297 14.3442 7.94766 14.5 8.47412 14.5ZM2.66671 6.5H3.33337C4.06975 6.5 4.66671 7.09695 4.66671 7.83333V12.5C4.66671 13.2364 4.06975 13.8333 3.33337 13.8333H2.66671C1.93033 13.8333 1.33337 13.2364 1.33337 12.5V7.83333C1.33337 7.09695 1.93033 6.5 2.66671 6.5Z"
    fill="#FDFDFD" />
</svg>