<svg width="673" height="277" viewBox="0 0 673 277" fill="none" xmlns="http://www.w3.org/2000/svg">
    <g clip-path="url(#clip0_75_60)">
        <g filter="url(#filter0_f_75_60)">
            <path fill-rule="evenodd" clip-rule="evenodd" d="M753.107 218.862L720.001 210.848L693.414 243.509L726.52 251.523L753.107 218.862ZM761.273 259.936L762.011 260.115L762.385 258.57L761.273 259.936ZM652.142 194.421L685.248 202.435L658.661 235.097L625.554 227.083L652.142 194.421ZM617.388 186.009L584.281 177.994L557.694 210.656L590.801 218.67L617.388 186.009ZM516.423 161.568L549.528 169.582L522.941 202.243L489.836 194.23L516.423 161.568ZM481.67 153.155L448.561 145.141L421.974 177.803L455.083 185.817L481.67 153.155ZM380.702 128.714L413.808 136.728L387.221 169.39L354.115 161.376L380.702 128.714ZM345.949 120.302L312.843 112.288L286.256 144.949L319.361 152.963L345.949 120.302ZM244.984 95.8612L278.09 103.875L251.503 136.537L218.396 128.523L244.984 95.8612ZM210.23 87.4486L177.124 79.4346L150.537 112.096L183.643 120.11L210.23 87.4486ZM109.265 63.008L142.371 71.0219L115.784 103.684L82.6775 95.6696L109.265 63.008ZM74.5113 54.5953L41.4029 46.5808L14.8157 79.2424L47.9241 87.2569L74.5113 54.5953ZM-26.4553 30.1545L6.64954 38.1681L-19.9377 70.8297L-53.0425 62.8161L-26.4553 30.1545ZM-61.2086 21.7418L-89.0596 15L-98 51.9333L-87.7958 54.4034L-61.2086 21.7418Z" fill="#4235A2"/>
        </g>
        <path fill-rule="evenodd" clip-rule="evenodd" d="M-30.9345 249.656L0.22362 242.147L7.92785 201.203L-23.2303 208.712L-30.9345 249.656ZM-55.9358 216.593L-56.6289 216.76L-56.2573 218.302L-55.9358 216.593ZM64.0829 226.758L32.9292 234.266L40.6333 193.321L71.7871 185.813L64.0829 226.758ZM96.7883 218.876L127.944 211.368L135.648 170.423L104.492 177.932L96.7883 218.876ZM191.805 195.978L160.65 203.486L168.354 162.541L199.51 155.033L191.805 195.978ZM224.511 188.096L255.667 180.588L263.371 139.643L232.215 147.151L224.511 188.096ZM319.526 165.198L288.372 172.706L296.077 131.761L327.23 124.254L319.526 165.198ZM352.232 157.316L383.387 149.808L391.092 108.864L359.936 116.372L352.232 157.316ZM447.249 134.418L416.093 141.926L423.797 100.982L454.953 93.4736L447.249 134.418ZM479.954 126.536L511.11 119.028L518.814 78.0835L487.658 85.5919L479.954 126.536ZM574.971 103.638L543.816 111.146L551.52 70.2018L582.676 62.6935L574.971 103.638ZM607.677 95.7563L638.833 88.248L646.537 47.3035L615.381 54.8118L607.677 95.7563ZM702.692 72.8585L671.538 80.3663L679.243 39.4217L710.396 31.9139L702.692 72.8585ZM735.398 64.9767L761.608 58.6602L752.706 21.7178L743.102 24.0322L735.398 64.9767Z" fill="#211B51"/>
    </g>
    <defs>
        <filter id="filter0_f_75_60" x="-108" y="5" width="880.385" height="265.115" filterUnits="userSpaceOnUse" color-interpolation-filters="sRGB">
            <feFlood flood-opacity="0" result="BackgroundImageFix"/>
            <feBlend mode="normal" in="SourceGraphic" in2="BackgroundImageFix" result="shape"/>
            <feGaussianBlur stdDeviation="5" result="effect1_foregroundBlur_75_60"/>
        </filter>
        <clipPath id="clip0_75_60">
            <rect width="673" height="277" fill="white"/>
        </clipPath>
    </defs>
</svg>
