<svg width="22" height="23" viewBox="0 0 22 23" fill="none" xmlns="http://www.w3.org/2000/svg">
  <path
    d="M7.63118 9.93441C7.05656 8.7874 5.87023 8 4.5 8C2.567 8 1 9.567 1 11.5C1 13.433 2.567 15 4.5 15C5.87023 15 7.05656 14.2126 7.63118 13.0656M7.63118 9.93441C7.86718 10.4055 8 10.9372 8 11.5C8 12.0628 7.86718 12.5945 7.63118 13.0656M7.63118 9.93441L14.3688 6.56559M7.63118 13.0656L14.3688 16.4344M14.3688 6.56559C14.9434 7.7126 16.1298 8.5 17.5 8.5C19.433 8.5 21 6.933 21 5C21 3.067 19.433 1.5 17.5 1.5C15.567 1.5 14 3.067 14 5C14 5.56276 14.1328 6.09451 14.3688 6.56559ZM14.3688 16.4344C14.1328 16.9055 14 17.4372 14 18C14 19.933 15.567 21.5 17.5 21.5C19.433 21.5 21 19.933 21 18C21 16.067 19.433 14.5 17.5 14.5C16.1298 14.5 14.9434 15.2874 14.3688 16.4344Z"
    stroke="#918FFF" stroke-width="1.8" stroke-linecap="round" />
</svg>