<svg width="20" height="24" viewBox="0 0 20 24" fill="none" xmlns="http://www.w3.org/2000/svg">
  <path
    d="M16.9993 13.3754V9.66536C16.9977 8.01234 16.4111 6.41324 15.3434 5.15127C14.2757 3.88929 12.7959 3.04587 11.166 2.77036V1.4987C11.166 1.18928 11.0431 0.892532 10.8243 0.67374C10.6055 0.454948 10.3088 0.332031 9.99935 0.332031C9.68993 0.332031 9.39318 0.454948 9.17439 0.67374C8.9556 0.892532 8.83268 1.18928 8.83268 1.4987V2.77036C7.20278 3.04587 5.72296 3.88929 4.6553 5.15127C3.58764 6.41324 3.00102 8.01234 2.99935 9.66536V13.3754C2.31854 13.6161 1.72885 14.0614 1.31111 14.6505C0.893374 15.2395 0.668045 15.9433 0.666016 16.6654V18.9987C0.666016 19.3081 0.788932 19.6049 1.00772 19.8237C1.22652 20.0424 1.52326 20.1654 1.83268 20.1654H5.49602C5.76468 21.154 6.35118 22.0267 7.16504 22.6489C7.97891 23.2711 8.97489 23.6082 9.99935 23.6082C11.0238 23.6082 12.0198 23.2711 12.8337 22.6489C13.6475 22.0267 14.234 21.154 14.5027 20.1654H18.166C18.4754 20.1654 18.7722 20.0424 18.991 19.8237C19.2098 19.6049 19.3327 19.3081 19.3327 18.9987V16.6654C19.3307 15.9433 19.1053 15.2395 18.6876 14.6505C18.2698 14.0614 17.6802 13.6161 16.9993 13.3754ZM5.33268 9.66536C5.33268 8.42769 5.82435 7.2407 6.69952 6.36553C7.57469 5.49036 8.76167 4.9987 9.99935 4.9987C11.237 4.9987 12.424 5.49036 13.2992 6.36553C14.1743 7.2407 14.666 8.42769 14.666 9.66536V13.1654H5.33268V9.66536ZM9.99935 21.332C9.59215 21.3296 9.19268 21.2206 8.84065 21.0159C8.48862 20.8113 8.19628 20.518 7.99268 20.1654H12.006C11.8024 20.518 11.5101 20.8113 11.158 21.0159C10.806 21.2206 10.4065 21.3296 9.99935 21.332ZM16.9993 17.832H2.99935V16.6654C2.99935 16.3559 3.12227 16.0592 3.34106 15.8404C3.55985 15.6216 3.8566 15.4987 4.16602 15.4987H15.8327C16.1421 15.4987 16.4388 15.6216 16.6576 15.8404C16.8764 16.0592 16.9993 16.3559 16.9993 16.6654V17.832Z"
    fill="#FDFDFD" />
</svg>